<?xml version="1.0" encoding="utf-8"?>
<!-- Generator: Adobe Illustrator 26.2.1, SVG Export Plug-In . SVG Version: 6.00 Build 0)  -->
<svg version="1.1" id="Layer_1" xmlns="http://www.w3.org/2000/svg" xmlns:xlink="http://www.w3.org/1999/xlink" x="0px" y="0px"
	 viewBox="0 0 1585.5 1618.5" style="enable-background:new 0 0 1585.5 1618.5;" xml:space="preserve">
<style type="text/css">
	.st0{fill:#B3B6C0;}
	.st1{fill:none;stroke:#FFFFFF;}
	.st2{enable-background:new    ;}
	.st3{fill:#E0E1E2;stroke:#FFFFFF;stroke-width:1.5;}
	.st4{fill:#E0E1E2;stroke:#FFFFFF;stroke-width:1.4124;}
	.st5{fill:#E0E1E2;stroke:#FFFFFF;stroke-width:2.5174;}
	.st6{fill:#E0E1E2;stroke:#FFFFFF;stroke-width:0.7087;}
	.st7{fill-rule:evenodd;clip-rule:evenodd;fill:#E72024;}
	.st8{fill:#E72024;}
	.st9{fill:none;stroke:#929292;}
	.st10{fill:#929292;}
	.st11{fill:#FFFFFF;}
	.st12{fill:#002F46;}
	.st13{fill:#ED1C2E;}
	.st14{fill:none;stroke:#E6E6E6;}
</style>
<g id="Base">
	<polygon class="st0" points="151.8,275.1 433.9,275.1 433.9,171 635.2,171 635.2,574.6 644.5,577.4 644.5,488.4 771,488.4 
		771,600.7 808.1,600.7 808.1,637.9 845.6,649.4 840.3,666.5 825.2,661.9 825.2,709.5 760.8,709.5 760.8,721.4 644.5,721.4 
		644.5,618.4 636.2,616.8 636.2,788.8 619.1,810.1 533.1,848.3 254.7,848.3 254.7,787.1 242.8,787.1 242.8,720.7 151.8,720.7 	"/>
	<path class="st1" d="M818.4,786.4h165.1l-11.1,175.8v115.2l117.8,10.2l238.5-9l52.9,51.6v268.4h-11.1v29.9l-430.5,8.1H785.6
		l-19.2-41.8l8.5-132.3c0,0,1.7-14.5,10.2-23.9v-30.1h14.1v-57.4h-14.1v-21.3l3.8-90.5l-6-6.8v-5.1h53.3v-62.7h-17.9V786.4H818.4z"
		/>
	<g class="st2">
		<path d="M197,220.4v7.7h-4.3v-17.5h4.3v7.7l5.8-7.7h5l-6.8,8.6l7,8.9h-5.2L197,220.4z"/>
		<path d="M220.9,214h-6.5v3.5h5.7v3.3h-5.7v3.8h6.5v3.4h-10.7v-17.5h10.7V214z"/>
		<path d="M223.7,210.6h4.3v17.5h-4.3V210.6z"/>
		<path d="M238.3,210.6c4.3,0,6.4,2.5,6.4,5.5c0,2.2-1.2,4.3-3.9,5.1l4,6.9H240l-3.6-6.6h-1v6.6h-4.3v-17.5H238.3z M238,214.1h-2.6
			v4.3h2.6c1.6,0,2.3-0.8,2.3-2.2C240.4,215,239.6,214.1,238,214.1z"/>
		<path d="M258.3,225h-6.5l-1,3.1h-4.5l6.3-17.5h4.9l6.3,17.5h-4.5L258.3,225z M255,215.3l-2.1,6.4h4.3L255,215.3z"/>
		<path d="M279.3,228.1h-8.2v-17.5h7.9c3.6,0,5.7,1.8,5.7,4.5c0,2.1-1.3,3.5-3,4c2,0.4,3.4,2.2,3.4,4.2
			C285.1,226.3,283,228.1,279.3,228.1z M278.2,214h-2.8v3.7h2.8c1.4,0,2.2-0.6,2.2-1.8C280.4,214.7,279.6,214,278.2,214z
			 M278.5,220.8h-3.1v3.9h3.1c1.4,0,2.2-0.6,2.2-1.9S279.9,220.8,278.5,220.8z"/>
		<path d="M287.5,210.6h4.3v10.5c0,2.1,1,3.3,3,3.3s3.1-1.2,3.1-3.3v-10.5h4.3v10.5c0,4.8-3.4,7.2-7.4,7.2c-4.1,0-7.2-2.4-7.2-7.2
			L287.5,210.6L287.5,210.6z"/>
		<path d="M305.2,210.6h4.3v17.5h-4.3V210.6z"/>
		<path d="M316.9,210.6v14.2h5.6v3.3h-9.9v-17.5H316.9z"/>
		<path d="M340.3,219.4c0,5.2-3.6,8.8-9.2,8.8h-6.6v-17.5h6.6C336.7,210.6,340.3,214.1,340.3,219.4z M330.8,224.4
			c3.2,0,5.1-1.8,5.1-5.1c0-3.2-1.9-5.1-5.1-5.1h-2v10.2L330.8,224.4L330.8,224.4z"/>
		<path d="M342.7,210.6h4.3v17.5h-4.3V210.6z"/>
		<path d="M365.8,210.6v17.5h-4.3l-7.1-10.8v10.8h-4.3v-17.5h4.3l7.1,10.9v-10.9H365.8z"/>
		<path d="M385.2,216.1h-4.7c-0.6-1.2-1.8-1.8-3.4-1.8c-2.7,0-4.6,2-4.6,5c0,3.2,1.8,5.1,4.9,5.1c2.1,0,3.6-1.1,4.2-3.1h-5.4v-3.1
			h9.3v4c-0.9,3-3.8,6-8.4,6c-5.2,0-8.9-3.7-8.9-8.9s3.7-8.9,8.9-8.9C381.3,210.4,384.3,212.6,385.2,216.1z"/>
	</g>
	<g class="st2">
		<path d="M1000.7,1487.7H996c-0.6-1.2-1.8-1.8-3.4-1.8c-2.7,0-4.6,2-4.6,5c0,3.2,1.8,5.1,4.9,5.1c2.1,0,3.6-1.1,4.2-3.1h-5.4v-3.1
			h9.3v4c-0.9,3-3.8,6-8.4,6c-5.2,0-8.9-3.7-8.9-8.9s3.7-8.9,8.9-8.9C996.7,1482,999.7,1484.1,1000.7,1487.7z"/>
		<path d="M1014.3,1496.6h-6.5l-1,3.1h-4.5l6.3-17.5h4.9l6.3,17.5h-4.5L1014.3,1496.6z M1011,1486.9l-2.1,6.4h4.3L1011,1486.9z"/>
		<path d="M1020.8,1482.2h13.6v3.4h-4.6v14.1h-4.3v-14.1h-4.6v-3.4H1020.8z"/>
		<path d="M1047.3,1485.6h-6.5v3.5h5.7v3.3h-5.7v3.8h6.5v3.4h-10.7v-17.5h10.7V1485.6z"/>
		<path d="M1049.2,1482.2h4.6l2.5,12.8l3.1-12.8h4.7l3,12.8l2.5-12.8h4.6l-4.6,17.5h-5.2l-2.8-11.5l-2.9,11.5h-5.2L1049.2,1482.2z"
			/>
		<path d="M1087.3,1496.6h-6.5l-1,3.1h-4.5l6.3-17.5h4.9l6.3,17.5h-4.5L1087.3,1496.6z M1084,1486.9l-2.1,6.4h4.3L1084,1486.9z"/>
		<path d="M1093.4,1482.2h4.8l3.4,7.3l3.4-7.3h4.8l-6.1,11.7v5.8h-4.3v-5.8L1093.4,1482.2z"/>
		<path d="M1125,1499.7h-8.2v-17.5h7.9c3.6,0,5.7,1.8,5.7,4.5c0,2.1-1.3,3.5-3,4c2,0.4,3.4,2.2,3.4,4.2
			C1130.9,1497.9,1128.7,1499.7,1125,1499.7z M1123.9,1485.6h-2.8v3.7h2.8c1.4,0,2.2-0.6,2.2-1.8
			C1126.1,1486.3,1125.3,1485.6,1123.9,1485.6z M1124.2,1492.4h-3.1v3.9h3.1c1.4,0,2.2-0.6,2.2-1.9S1125.7,1492.4,1124.2,1492.4z"/>
		<path d="M1133.3,1482.2h4.3v10.5c0,2.1,1,3.3,3,3.3s3.1-1.2,3.1-3.3v-10.5h4.3v10.5c0,4.8-3.4,7.2-7.4,7.2c-4.1,0-7.2-2.4-7.2-7.2
			v-10.5H1133.3z"/>
		<path d="M1151,1482.2h4.3v17.5h-4.3V1482.2z"/>
		<path d="M1162.6,1482.2v14.2h5.6v3.3h-9.9v-17.5H1162.6z"/>
		<path d="M1186,1491c0,5.2-3.6,8.8-9.2,8.8h-6.6v-17.5h6.6C1182.4,1482.2,1186,1485.7,1186,1491z M1176.6,1496
			c3.2,0,5.1-1.8,5.1-5.1c0-3.2-1.9-5.1-5.1-5.1h-2v10.2H1176.6z"/>
		<path d="M1188.5,1482.2h4.3v17.5h-4.3V1482.2z"/>
		<path d="M1211.5,1482.2v17.5h-4.3l-7.1-10.8v10.8h-4.3v-17.5h4.3l7.1,10.9v-10.9H1211.5z"/>
		<path d="M1231,1487.7h-4.7c-0.6-1.2-1.8-1.8-3.4-1.8c-2.7,0-4.6,2-4.6,5c0,3.2,1.8,5.1,4.9,5.1c2.1,0,3.6-1.1,4.2-3.1h-5.4v-3.1
			h9.3v4c-0.9,3-3.8,6-8.4,6c-5.2,0-8.9-3.7-8.9-8.9s3.7-8.9,8.9-8.9C1227,1482,1230.1,1484.1,1231,1487.7z"/>
	</g>
	<path class="st0" d="M818.4,786.4h165.1l-11.1,175.8v115.2l117.8,10.2l238.5-9l52.9,51.6v268.4h-11.1v29.9l-430.5,8.1H785.6
		l-19.2-41.8l8.5-132.3c0,0,1.7-14.5,10.2-23.9v-30.1h14.1v-57.4h-14.1v-21.3l3.8-90.5l-6-6.8v-5.1h53.3v-62.7h-17.9V786.4H818.4z"
		/>
	<polygon class="st1" points="151.8,275.1 433.9,275.1 433.9,171 635.2,171 635.2,574.6 644.5,577.4 644.5,488.4 771,488.4 
		771,600.7 808.1,600.7 808.1,637.9 845.6,649.4 840.3,666.5 825.2,661.9 825.2,709.5 760.8,709.5 760.8,721.4 644.5,721.4 
		644.5,618.4 636.2,616.8 636.2,788.8 619.1,810.1 533.1,848.3 254.7,848.3 254.7,787.1 242.8,787.1 242.8,720.7 151.8,720.7 	"/>
</g>
<g id="MLOC-stores">
	<polygon id="W004A" class="st3" points="402,317.4 634.6,317.4 634.6,172.3 433.3,172.3 433.3,276.4 402,276.4 	"/>
	<polygon id="W005" class="st3" points="635.2,317.1 527.4,317.1 522.2,352.8 635.2,352.8 	"/>
	<polygon id="W005A" class="st3" points="635.2,351.8 522.2,351.8 516.3,392.8 635.2,392.8 	"/>
	<polygon id="W006" class="st3" points="635.2,392.8 516.3,392.8 509.4,437 635.2,437 	"/>
	<polygon id="W007" class="st3" points="635.2,437 509.4,437 502.9,486.2 635.2,486.2 	"/>
	<polygon id="W008" class="st3" points="497.9,520.2 568.8,520.2 568.8,486.2 502.9,486.2 	"/>
	<polygon id="W009" class="st3" points="559.4,555.4 559.4,520.2 568.8,520.2 568.8,486.2 617.3,486.2 617.3,569.1 	"/>
	<polygon id="W010" class="st3" points="656.2,538.8 656.2,581.1 710.8,599.8 710.8,538.8 	"/>
	<polygon id="W011" class="st3" points="771,538.8 710.8,538.8 710.8,599.8 771,620.3 	"/>
	<polygon id="W012" class="st3" points="761.2,698.6 761.2,692 732.4,648 695.3,635.5 695.3,721.4 760.8,721.4 760.8,709.5 
		775.3,709.5 775.3,698.6 	"/>
	<polygon id="W013" class="st3" points="644.5,618.4 644.5,721.4 695.3,721.4 695.3,635.5 	"/>
	<polygon id="W014" class="st3" points="636.2,616.8 596.3,609.5 596.3,694.3 636.2,694.3 	"/>
	<polygon id="W015" class="st3" points="559.4,602.7 559.4,694.3 596.3,694.3 596.3,609.5 	"/>
	<polygon id="W016" class="st3" points="559.4,602.7 519,595.3 503.9,641.8 559.4,641.8 	"/>
	<polygon id="W017" class="st3" points="503.9,641.8 499.7,694.3 559.4,694.3 559.4,641.8 	"/>
	<polygon id="W018" class="st3" points="499.7,694.3 494.9,753.8 563.4,753.8 563.4,834.7 619.1,810.1 636.2,788.8 636.2,694.3 	"/>
	<polygon id="W019" class="st3" points="494.9,753.8 492,790.7 563.4,834.7 563.4,753.8 	"/>
	<polygon id="W003" class="st3" points="402.6,634.8 402.6,275.1 151.8,275.1 151.8,720.7 273.5,720.7 273.5,634.8 	"/>
	<rect id="W003_x5F_01" x="273.5" y="634.8" class="st3" width="129.1" height="85.9"/>
	<polygon id="W001_x2F_W002" class="st3" points="242.8,720.7 242.8,787.1 254.7,787.1 254.7,848.3 448,848.3 448,796.9 
		402.6,729.9 402.6,720.7 	"/>
	<rect id="W005K" x="451.1" y="392.2" class="st4" width="26.2" height="32.4"/>
	<rect id="W001K" x="451.1" y="440.5" class="st3" width="26.2" height="36.5"/>
	<rect id="W002K" x="451.1" y="497.1" class="st3" width="26.2" height="36.5"/>
	<rect id="W003K_00000091011054083835620480000001778919424281752210_" x="451.1" y="584" class="st3" width="26.2" height="36.5"/>
	<rect id="CPK1" x="99.6" y="658.4" class="st5" width="43.2" height="62.3"/>
	<rect id="W004K" x="451.1" y="641.5" class="st3" width="26.2" height="36.5"/>
	<polygon id="S001_x5F_LG" class="st3" points="966.9,1094 966.9,1099.6 954.6,1099.6 954.6,1088.5 926.8,1088.5 921.3,1081.6 
		921.3,1055.4 972.5,1055.4 972.5,962.2 983.6,786.4 818.4,786.4 818.4,964.7 836.4,964.7 836.4,1027.5 783,1027.5 783,1032.6 
		789,1039.4 785.2,1129.9 840.2,1129.9 877.3,1094 923,1139.2 923,1182.9 973.5,1231.4 1125.2,1231.4 1125.8,1149.1 1077.4,1149.1 
		1077.1,1104.1 	"/>
	<polygon id="S020_x5F_LG" class="st3" points="1227.8,1082.4 1227.8,1182.3 1176.6,1182.3 1176.6,1084.4 	"/>
	<polygon id="S701_x5F_LG" class="st3" points="1370.6,1428.5 1370.6,1398.7 1381.6,1398.7 1381.6,1130.3 1328.7,1078.7 
		1227.8,1082.4 1227.8,1182.3 1176.6,1182.3 1176.6,1285.4 1227.8,1285.4 1227.8,1431.2 	"/>
	<polygon id="S003_x5F_LG1" class="st3" points="1114.6,1285.4 1227.8,1285.4 1227.8,1431.2 1114.6,1433.3 	"/>
	<polygon id="S003_x5F_LG" class="st3" points="1114.6,1285.4 1022.7,1285.4 940.1,1285.4 940.2,1436.6 1114.6,1433.3 	"/>
	<path id="S002-LG" class="st3" d="M872.2,1225.8h-51.8c0,0-15.4-0.2-24.5,4.7c-3.3,1.8-6.6,4.4-10.7,8.1
		c-8.3,9.1-10.2,23.9-10.2,23.9l-8.5,132.3l19.2,41.8h154.5l0.1-151.3L872.2,1225.8z"/>
</g>
<g id="MNOINT-logosnumbers">
	<polygon class="st6" points="1125.8,1086.3 1125.8,1089.2 1125.8,1092.3 1125.8,1092.6 1142.9,1092.6 1142.9,1160 1149.8,1160 
		1162.8,1160 1162.8,1084.9 	"/>
	<g id="coles_1_" transform="translate(-249.85629,-460.69366)">
		<g id="g3130_1_" transform="translate(20,10.000498)">
			<path id="path2489_1_" class="st7" d="M450.5,913c-1.9,7.6-8.7,13.2-17,13.2c-9.7,0-17.5-7.9-17.5-17.5c0-9.7,7.8-17.5,17.5-17.5
				c8.3,0,15.1,5.7,17,13.2h-7.1c-1.6-3.8-5.4-6.4-9.9-6.4c-5.9,0-10.6,4.8-10.6,10.6c0,5.9,4.8,10.6,10.6,10.6
				c4.4,0,8.1-2.7,9.9-6.4"/>
			<path id="path2491_1_" class="st7" d="M469.2,891c-9.7,0-17.5,7.8-17.5,17.5s8,17.5,17.5,17.5c9.7,0,17.5-7.8,17.6-17.5
				C486.7,898.8,478.9,891,469.2,891 M469.2,919.2c-5.9,0-10.6-4.8-10.6-10.6s4.8-10.6,10.6-10.6s10.6,4.8,10.6,10.6
				C479.7,914.4,475.1,919.2,469.2,919.2"/>
			<path id="path2493_1_" class="st8" d="M488.9,881.4v44.8h7.6v-44.8H488.9z"/>
			<path id="path2495_1_" class="st7" d="M516.9,919.3c-5.4,0-9.9-4-9.9-8.7c0-0.2,0-0.3,0-0.5h25.3c0-14-7.1-19.1-16-19.1
				c-6.8,0-16.7,4.4-16.7,17.5c0,10.8,7.8,17.8,16.7,17.8c7.6,0,14.1-4.6,15.7-12.2h-7.1C523.7,917.4,520.7,919.3,516.9,919.3
				 M516.3,897.2c4.4,0,8.1,3.2,8.7,7h-17.2h-0.1C508,900.3,511.7,897.2,516.3,897.2"/>
			<path id="path2497_1_" class="st7" d="M553.9,902h6.7c0,0,0.3-6-4.8-8.9c0,0-2.4-2.1-8.9-2.1c0,0-6.7,0-9.7,2.9
				c0,0-3.2,2.4-3.2,7c0,0-0.5,4.4,3.8,7.1c0,0,3.5,1.7,7,2.7c0,0,5.6,1.6,6.5,2.1c0,0,4.8,2.2,1.9,4.9c0,0-1.3,1.7-5.6,1.7
				c0,0-7.6,0.3-7.6-5.6h-6.8c0,0-0.6,6.2,4.6,9.5c0,0,3.3,2.2,9.9,2.2c0,0,6.2,0,9.5-2.4c0,0,4.3-3,4.3-8.3c0,0,0.5-5.4-6.2-8.3
				c0,0-6.8-2.2-8.4-2.7c0,0-6.7-1.4-5.4-4.8c0,0,0.3-2.2,5.7-2.2c0,0,3.8,0,5.4,2.1C552.6,899.2,553.8,900.4,553.9,902"/>
		</g>
	</g>
	<g>
		<line class="st9" x1="414.8" y1="390.3" x2="423.9" y2="390.3"/>
		<line class="st9" x1="414.8" y1="392.8" x2="423.9" y2="392.8"/>
		<line class="st9" x1="414.8" y1="387.8" x2="423.9" y2="387.8"/>
		<line class="st9" x1="414.8" y1="395.3" x2="423.9" y2="395.3"/>
		<line class="st9" x1="414.8" y1="397.8" x2="423.9" y2="397.8"/>
		<line class="st9" x1="414.8" y1="400.3" x2="423.9" y2="400.3"/>
		<line class="st9" x1="414.8" y1="380.3" x2="423.9" y2="380.3"/>
		<line class="st9" x1="414.8" y1="382.8" x2="423.9" y2="382.8"/>
		<line class="st9" x1="414.8" y1="385.3" x2="423.9" y2="385.3"/>
		<polygon class="st9" points="423.9,350.3 423.9,411.1 414.9,411.1 414.9,350.3 416.6,350.3 		"/>
		<rect x="422.4" y="350.3" class="st10" width="1.5" height="54"/>
		<line class="st9" x1="406" y1="390.3" x2="414.7" y2="390.3"/>
		<line class="st9" x1="406" y1="392.8" x2="414.7" y2="392.8"/>
		<line class="st9" x1="406" y1="387.8" x2="414.7" y2="387.8"/>
		<line class="st9" x1="406" y1="395.3" x2="414.7" y2="395.3"/>
		<line class="st9" x1="406" y1="397.8" x2="414.7" y2="397.8"/>
		<line class="st9" x1="406" y1="400.3" x2="414.7" y2="400.3"/>
		<line class="st9" x1="406" y1="380.3" x2="414.7" y2="380.3"/>
		<line class="st9" x1="406" y1="382.8" x2="414.7" y2="382.8"/>
		<line class="st9" x1="406" y1="385.3" x2="414.7" y2="385.3"/>
		<line class="st9" x1="414.8" y1="367.9" x2="423.9" y2="367.9"/>
		<line class="st9" x1="414.8" y1="370.4" x2="423.9" y2="370.4"/>
		<line class="st9" x1="414.8" y1="365.4" x2="423.9" y2="365.4"/>
		<line class="st9" x1="414.8" y1="372.9" x2="423.9" y2="372.9"/>
		<line class="st9" x1="414.8" y1="375.4" x2="423.9" y2="375.4"/>
		<line class="st9" x1="414.8" y1="377.9" x2="423.9" y2="377.9"/>
		<line class="st9" x1="414.8" y1="360.4" x2="423.9" y2="360.4"/>
		<line class="st9" x1="414.8" y1="362.9" x2="423.9" y2="362.9"/>
		<line class="st9" x1="406" y1="367.9" x2="414.7" y2="367.9"/>
		<line class="st9" x1="406" y1="370.4" x2="414.7" y2="370.4"/>
		<line class="st9" x1="406" y1="365.4" x2="414.7" y2="365.4"/>
		<line class="st9" x1="406" y1="372.9" x2="414.7" y2="372.9"/>
		<line class="st9" x1="406" y1="375.4" x2="414.7" y2="375.4"/>
		<line class="st9" x1="406" y1="377.9" x2="414.7" y2="377.9"/>
		<line class="st9" x1="406" y1="360.4" x2="414.7" y2="360.4"/>
		<line class="st9" x1="406" y1="362.9" x2="414.7" y2="362.9"/>
		<line class="st9" x1="414.8" y1="357.9" x2="423.9" y2="357.9"/>
		<line class="st9" x1="414.8" y1="355.4" x2="423.9" y2="355.4"/>
		<line class="st9" x1="414.8" y1="352.9" x2="423.9" y2="352.9"/>
		<line class="st9" x1="406" y1="357.9" x2="414.7" y2="357.9"/>
		<line class="st9" x1="406" y1="355.4" x2="414.7" y2="355.4"/>
		<line class="st9" x1="406" y1="352.9" x2="414.7" y2="352.9"/>
		<polygon class="st9" points="414.9,350.3 414.9,411.1 406,411.1 406,350.3 407.6,350.3 		"/>
		<polygon class="st10" points="416.4,350.3 415.3,350.3 414.9,350.3 413.5,350.3 413.5,404.3 414.9,404.3 415.3,404.3 416.4,404.3 
					"/>
		<rect x="414.6" y="351.8" class="st11" width="0.7" height="51.6"/>
		<g>
			<path class="st12" d="M415.1,431c5.7,0,10.2-4.6,10.2-10.2s-4.6-10.2-10.2-10.2c-5.7,0-10.2,4.6-10.2,10.2S409.5,431,415.1,431"
				/>
			<path class="st11" d="M415.3,418.5l2.2-2.2c0.4-0.4,1-0.6,1.5-0.6h2.4c0.8,0,1.8,0.8,1.8,1.9c0,1.2-1,2-1.8,2c-0.6,0-1.5,0-1.5,0
				c-0.2,0-0.3,0-0.4,0.2l-6.1,6c-0.5,0.5-1.1,0.6-1.6,0.6s-2.1,0-2.1,0c-1.3,0-2-1.1-2-2s0.7-1.9,1.9-1.9h1.2c0.3,0,0.4,0,0.6-0.2
				l1.9-1.9v-2.6c0-1.4,2-1.4,2,0V418.5 M414.3,416.7c0.6,0,1-0.5,1-1c0-0.6-0.5-1-1-1c-0.6,0-1,0.4-1,1
				C413.3,416.2,413.7,416.7,414.3,416.7 M419.1,416.7c-0.4,0-0.7,0-1,0.3l-6.2,6.2c-0.2,0.2-0.5,0.3-0.9,0.3h-1.4
				c-0.5,0-0.9,0.3-0.9,0.9s0.4,1,1,1h2c0.4,0,0.7-0.1,0.9-0.4l6.1-6.1c0.3-0.3,0.6-0.4,1.1-0.4h1.3c0.6,0,0.9-0.6,0.9-1
				c0-0.3-0.3-0.9-0.9-0.9h-2"/>
		</g>
	</g>
	<g class="st2">
		<path d="M516.3,252.5c0,0-0.1,0.7-0.3,1.3l-1.6,5.9h-1l-2.2-8.4h0.9l1.6,6.5c0.1,0.4,0.2,0.9,0.2,0.9l0,0c0,0,0.1-0.5,0.2-0.9
			l1.8-6.5h0.8l1.8,6.5c0.1,0.4,0.2,0.9,0.2,0.9l0,0c0,0,0.1-0.5,0.2-0.9l1.7-6.5h0.9l-2.2,8.4h-1l-1.6-5.9
			C516.4,253.2,516.3,252.5,516.3,252.5L516.3,252.5z"/>
		<path d="M522.7,255.5c0-2.4,0.7-4.4,2.9-4.4s2.9,1.9,2.9,4.4c0,2.4-0.7,4.4-2.9,4.4S522.7,257.9,522.7,255.5z M527.6,255.5
			c0-2-0.4-3.6-2-3.6s-2.1,1.6-2.1,3.6s0.4,3.6,2.1,3.6C527.2,259.1,527.6,257.5,527.6,255.5z"/>
		<path d="M530.2,255.5c0-2.4,0.7-4.4,2.9-4.4s2.9,1.9,2.9,4.4c0,2.4-0.7,4.4-2.9,4.4S530.2,257.9,530.2,255.5z M535.1,255.5
			c0-2-0.4-3.6-2-3.6s-2.1,1.6-2.1,3.6s0.4,3.6,2.1,3.6C534.7,259.1,535.1,257.5,535.1,255.5z"/>
		<path d="M537.3,256.8l4.1-5.6h0.9v5.4h1.2v0.7h-1.2v2.3h-0.8v-2.3h-4.2V256.8z M541.5,256.6v-3.5c0-0.4,0-0.8,0-0.8l0,0
			c0,0-0.2,0.3-0.4,0.6l-2.8,3.7l0,0H541.5z"/>
		<path d="M549.4,257H546l-1,2.7h-0.9l3.1-8.4h0.9l3.1,8.4h-0.9L549.4,257z M547.7,252.2c0,0-0.2,0.7-0.3,1.1l-1.1,3.1h2.9l-1.1-3.1
			C547.9,252.9,547.7,252.2,547.7,252.2L547.7,252.2z"/>
	</g>
	<g class="st2">
		<path d="M553.4,332.7c0,0-0.1,0.7-0.3,1.3l-1.6,5.9h-1l-2.2-8.4h0.9l1.6,6.5c0.1,0.4,0.2,0.9,0.2,0.9l0,0c0,0,0.1-0.5,0.2-0.9
			l1.8-6.5h0.8l1.8,6.5c0.1,0.4,0.2,0.9,0.2,0.9l0,0c0,0,0.1-0.5,0.2-0.9l1.7-6.5h0.9l-2.2,8.4h-1l-1.6-5.9
			C553.5,333.5,553.4,332.7,553.4,332.7L553.4,332.7z"/>
		<path d="M559.8,335.7c0-2.4,0.7-4.4,2.9-4.4s2.9,1.9,2.9,4.4c0,2.4-0.7,4.4-2.9,4.4S559.8,338.2,559.8,335.7z M564.8,335.7
			c0-2-0.4-3.6-2-3.6s-2.1,1.6-2.1,3.6s0.4,3.6,2.1,3.6C564.3,339.3,564.8,337.7,564.8,335.7z"/>
		<path d="M567.3,335.7c0-2.4,0.7-4.4,2.9-4.4s2.9,1.9,2.9,4.4c0,2.4-0.7,4.4-2.9,4.4S567.3,338.2,567.3,335.7z M572.3,335.7
			c0-2-0.4-3.6-2-3.6s-2.1,1.6-2.1,3.6s0.4,3.6,2.1,3.6C571.8,339.3,572.3,337.7,572.3,335.7z"/>
		<path d="M575.2,338.3c0,0,0.6,1,1.9,1c1.2,0,2.1-0.8,2.1-2s-0.9-2-2.1-2c-0.9,0-1.5,0.5-1.5,0.5l-0.5-0.2l0.5-4.1h4.1v0.7h-3.4
			l-0.2,2.2c0,0.3-0.1,0.5-0.1,0.5l0,0c0,0,0.5-0.3,1.3-0.3c1.7,0,2.9,1.2,2.9,2.7c0,1.6-1.3,2.8-2.9,2.8c-1.7,0-2.5-1.2-2.5-1.2
			L575.2,338.3z"/>
	</g>
	<g class="st2">
		<path d="M538,412.5c0,0-0.1,0.7-0.3,1.3l-1.6,5.9h-1l-2.2-8.4h0.9l1.6,6.5c0.1,0.4,0.2,0.9,0.2,0.9l0,0c0,0,0.1-0.5,0.2-0.9
			l1.8-6.5h0.8l1.8,6.5c0.1,0.4,0.2,0.9,0.2,0.9l0,0c0,0,0.1-0.5,0.2-0.9l1.7-6.5h0.9l-2.2,8.4h-1l-1.6-5.9
			C538.2,413.2,538,412.5,538,412.5L538,412.5z"/>
		<path d="M544.5,415.5c0-2.4,0.7-4.4,2.9-4.4s2.9,1.9,2.9,4.4c0,2.4-0.7,4.4-2.9,4.4S544.5,417.9,544.5,415.5z M549.4,415.5
			c0-2-0.4-3.6-2-3.6s-2.1,1.6-2.1,3.6s0.4,3.6,2.1,3.6C549,419.1,549.4,417.5,549.4,415.5z"/>
		<path d="M552,415.5c0-2.4,0.7-4.4,2.9-4.4s2.9,1.9,2.9,4.4c0,2.4-0.7,4.4-2.9,4.4S552,417.9,552,415.5z M556.9,415.5
			c0-2-0.4-3.6-2-3.6s-2.1,1.6-2.1,3.6s0.4,3.6,2.1,3.6C556.5,419.1,556.9,417.5,556.9,415.5z"/>
		<path d="M559.4,415.9c0-2.1,1.1-4.8,3.7-4.8c0.9,0,1.5,0.3,1.5,0.3l-0.3,0.7c0,0-0.5-0.3-1.2-0.3c-1.8,0-2.7,1.7-2.8,3.4l0,0
			c0.4-0.6,1.3-1,2.1-1c1.5,0,2.6,1.1,2.6,2.7c0,1.8-1.2,2.8-2.7,2.8C560.6,419.9,559.4,418.2,559.4,415.9z M564.2,417.1
			c0-1.2-0.8-2-1.9-2c-1.1,0-2,0.8-2,1.4c0,1.1,0.9,2.6,2.1,2.6C563.6,419.1,564.2,418.2,564.2,417.1z"/>
	</g>
	<g class="st2">
		<path d="M527.8,459.9c0,0-0.1,0.7-0.3,1.3l-1.6,5.9h-1l-2.2-8.4h0.9l1.6,6.5c0.1,0.4,0.2,0.9,0.2,0.9l0,0c0,0,0.1-0.5,0.2-0.9
			l1.8-6.5h0.8l1.8,6.5c0.1,0.4,0.2,0.9,0.2,0.9l0,0c0,0,0.1-0.5,0.2-0.9l1.7-6.5h0.9l-2.2,8.4h-1l-1.6-5.9
			C527.9,460.6,527.8,459.9,527.8,459.9L527.8,459.9z"/>
		<path d="M534.2,462.9c0-2.4,0.7-4.4,2.9-4.4s2.9,1.9,2.9,4.4c0,2.4-0.7,4.4-2.9,4.4S534.2,465.3,534.2,462.9z M539.2,462.9
			c0-2-0.4-3.6-2-3.6s-2.1,1.6-2.1,3.6s0.4,3.6,2.1,3.6C538.7,466.4,539.2,464.9,539.2,462.9z"/>
		<path d="M541.7,462.9c0-2.4,0.7-4.4,2.9-4.4s2.9,1.9,2.9,4.4c0,2.4-0.7,4.4-2.9,4.4S541.7,465.3,541.7,462.9z M546.7,462.9
			c0-2-0.4-3.6-2-3.6s-2.1,1.6-2.1,3.6s0.4,3.6,2.1,3.6C546.2,466.4,546.7,464.9,546.7,462.9z"/>
		<path d="M552.9,460.2c0.2-0.5,0.5-0.8,0.5-0.8l0,0c0,0-0.2,0-0.6,0h-3.9v-0.7h5.5v0.6l-3.9,7.9h-0.9L552.9,460.2z"/>
	</g>
	<g class="st2">
		<path d="M249.5,501.9c0,0-0.1,0.7-0.3,1.3l-1.6,5.9h-1l-2.2-8.4h0.9l1.6,6.5c0.1,0.4,0.2,0.9,0.2,0.9l0,0c0,0,0.1-0.5,0.2-0.9
			l1.8-6.5h0.8l1.8,6.5c0.1,0.4,0.2,0.9,0.2,0.9l0,0c0,0,0.1-0.5,0.2-0.9l1.7-6.5h0.9l-2.2,8.4h-1l-1.6-5.9
			C249.7,502.6,249.6,501.9,249.5,501.9L249.5,501.9z"/>
		<path d="M256,504.9c0-2.4,0.7-4.4,2.9-4.4s2.9,1.9,2.9,4.4c0,2.4-0.7,4.4-2.9,4.4S256,507.3,256,504.9z M260.9,504.9
			c0-2-0.4-3.6-2-3.6s-2.1,1.6-2.1,3.6s0.4,3.6,2.1,3.6C260.5,508.5,260.9,506.9,260.9,504.9z"/>
		<path d="M263.5,504.9c0-2.4,0.7-4.4,2.9-4.4s2.9,1.9,2.9,4.4c0,2.4-0.7,4.4-2.9,4.4S263.5,507.3,263.5,504.9z M268.4,504.9
			c0-2-0.4-3.6-2-3.6s-2.1,1.6-2.1,3.6s0.4,3.6,2.1,3.6C268,508.5,268.4,506.9,268.4,504.9z"/>
		<path d="M271.2,507.5c0,0,0.9,1,2.2,1c1,0,1.9-0.7,1.9-1.8c0-1.2-1-1.8-2.1-1.8h-0.6l-0.2-0.5l2.1-2.5c0.2-0.3,0.4-0.5,0.4-0.5
			l0,0c0,0-0.2,0-0.7,0H271v-0.7h4.9v0.6l-2.5,2.9c1.1,0.1,2.6,0.7,2.6,2.5c0,1.4-1.2,2.6-2.8,2.6c-1.7,0-2.7-1.2-2.7-1.2
			L271.2,507.5z"/>
	</g>
	<g class="st2">
		<path d="M315.3,677.3c0,0-0.1,0.7-0.3,1.3l-1.6,5.9h-1l-2.2-8.4h0.9l1.6,6.5c0.1,0.4,0.2,0.9,0.2,0.9l0,0c0,0,0.1-0.5,0.2-0.9
			l1.8-6.5h0.8l1.8,6.5c0.1,0.4,0.2,0.9,0.2,0.9l0,0c0,0,0.1-0.5,0.2-0.9l1.7-6.5h0.9l-2.2,8.4h-1l-1.6-5.9
			C315.5,678,315.3,677.3,315.3,677.3L315.3,677.3z"/>
		<path d="M321.7,680.2c0-2.4,0.7-4.4,2.9-4.4s2.9,1.9,2.9,4.4c0,2.4-0.7,4.4-2.9,4.4S321.7,682.7,321.7,680.2z M326.7,680.2
			c0-2-0.4-3.6-2-3.6s-2.1,1.6-2.1,3.6s0.4,3.6,2.1,3.6C326.2,683.8,326.7,682.2,326.7,680.2z"/>
		<path d="M329.2,680.2c0-2.4,0.7-4.4,2.9-4.4s2.9,1.9,2.9,4.4c0,2.4-0.7,4.4-2.9,4.4S329.2,682.7,329.2,680.2z M334.2,680.2
			c0-2-0.4-3.6-2-3.6s-2.1,1.6-2.1,3.6s0.4,3.6,2.1,3.6C333.7,683.8,334.2,682.2,334.2,680.2z"/>
		<path d="M336.9,682.8c0,0,0.9,1,2.2,1c1,0,1.9-0.7,1.9-1.8c0-1.2-1-1.8-2.1-1.8h-0.6l-0.2-0.5l2.1-2.5c0.2-0.3,0.4-0.5,0.4-0.5
			l0,0c0,0-0.2,0-0.7,0h-3.2V676h4.9v0.6l-2.5,2.9c1.1,0.1,2.6,0.7,2.6,2.5c0,1.4-1.2,2.6-2.8,2.6c-1.7,0-2.7-1.2-2.7-1.2
			L336.9,682.8z"/>
		<path d="M349.2,684.5v0.7H343v-0.7H349.2z"/>
		<path d="M350.5,680.2c0-2.4,0.7-4.4,2.9-4.4s2.9,1.9,2.9,4.4c0,2.4-0.7,4.4-2.9,4.4S350.5,682.7,350.5,680.2z M355.4,680.2
			c0-2-0.4-3.6-2-3.6s-2.1,1.6-2.1,3.6s0.4,3.6,2.1,3.6C355,683.8,355.4,682.2,355.4,680.2z"/>
		<path d="M357.8,683.7h1.9v-6.2c0-0.2,0-0.5,0-0.5l0,0c0,0-0.1,0.2-0.4,0.5l-0.9,0.9l-0.5-0.5l1.9-1.9h0.8v7.7h1.9v0.7h-4.6
			L357.8,683.7L357.8,683.7z"/>
	</g>
	<g class="st2">
		<path d="M318.5,773.9c0,0-0.1,0.7-0.3,1.3l-1.6,5.9h-1l-2.2-8.4h0.9l1.6,6.5c0.1,0.4,0.2,0.9,0.2,0.9l0,0c0,0,0.1-0.5,0.2-0.9
			l1.8-6.5h0.8l1.8,6.5c0.1,0.4,0.2,0.9,0.2,0.9l0,0c0,0,0.1-0.5,0.2-0.9l1.7-6.5h0.9l-2.2,8.4h-1l-1.6-5.9
			C318.7,774.6,318.5,773.9,318.5,773.9L318.5,773.9z"/>
		<path d="M324.9,776.9c0-2.4,0.7-4.4,2.9-4.4s2.9,1.9,2.9,4.4c0,2.4-0.7,4.4-2.9,4.4S324.9,779.3,324.9,776.9z M329.9,776.9
			c0-2-0.4-3.6-2-3.6s-2.1,1.6-2.1,3.6s0.4,3.6,2.1,3.6C329.4,780.5,329.9,778.9,329.9,776.9z"/>
		<path d="M332.4,776.9c0-2.4,0.7-4.4,2.9-4.4s2.9,1.9,2.9,4.4c0,2.4-0.7,4.4-2.9,4.4S332.4,779.3,332.4,776.9z M337.4,776.9
			c0-2-0.4-3.6-2-3.6s-2.1,1.6-2.1,3.6s0.4,3.6,2.1,3.6C336.9,780.5,337.4,778.9,337.4,776.9z"/>
		<path d="M339.8,780.4h1.9v-6.2c0-0.2,0-0.5,0-0.5l0,0c0,0-0.1,0.2-0.4,0.5l-0.9,0.9l-0.5-0.5l1.9-1.9h0.8v7.7h1.9v0.7h-4.6
			L339.8,780.4L339.8,780.4z"/>
		<path d="M348.3,772.2h0.8l-3,9.4h-0.8L348.3,772.2z"/>
		<path d="M355,773.9c0,0-0.1,0.7-0.3,1.3l-1.6,5.9h-1l-2.2-8.4h0.9l1.6,6.5c0.1,0.4,0.2,0.9,0.2,0.9l0,0c0,0,0.1-0.5,0.2-0.9
			l1.8-6.5h0.8l1.8,6.5c0.1,0.4,0.2,0.9,0.2,0.9l0,0c0,0,0.1-0.5,0.2-0.9l1.7-6.5h0.9l-2.2,8.4h-1l-1.6-5.9
			C355.2,774.6,355,773.9,355,773.9L355,773.9z"/>
		<path d="M361.4,776.9c0-2.4,0.7-4.4,2.9-4.4s2.9,1.9,2.9,4.4c0,2.4-0.7,4.4-2.9,4.4S361.4,779.3,361.4,776.9z M366.4,776.9
			c0-2-0.4-3.6-2-3.6s-2.1,1.6-2.1,3.6s0.4,3.6,2.1,3.6C366,780.5,366.4,778.9,366.4,776.9z"/>
		<path d="M368.9,776.9c0-2.4,0.7-4.4,2.9-4.4s2.9,1.9,2.9,4.4c0,2.4-0.7,4.4-2.9,4.4S368.9,779.3,368.9,776.9z M373.9,776.9
			c0-2-0.4-3.6-2-3.6s-2.1,1.6-2.1,3.6s0.4,3.6,2.1,3.6C373.5,780.5,373.9,778.9,373.9,776.9z"/>
		<path d="M376.3,780.6c0-3,4.3-3.3,4.3-5.6c0-0.9-0.7-1.6-1.8-1.6c-1.2,0-1.9,1.2-1.9,1.2l-0.6-0.4c0,0,0.8-1.5,2.6-1.5
			c1.6,0,2.6,1,2.6,2.4c0,2.8-4.3,3.2-4.3,5.5h4.4v0.7h-5.3C376.3,780.9,376.3,780.7,376.3,780.6z"/>
	</g>
	<g class="st2">
		<path d="M516.3,626.3c0,0-0.1,0.7-0.3,1.3l-1.6,5.9h-1l-2.2-8.4h0.9l1.6,6.5c0.1,0.4,0.2,0.9,0.2,0.9l0,0c0,0,0.1-0.5,0.2-0.9
			l1.8-6.5h0.8l1.8,6.5c0.1,0.4,0.2,0.9,0.2,0.9l0,0c0,0,0.1-0.5,0.2-0.9l1.7-6.5h0.9l-2.2,8.4h-1l-1.6-5.9
			C516.4,627,516.3,626.3,516.3,626.3L516.3,626.3z"/>
		<path d="M522.7,629.3c0-2.4,0.7-4.4,2.9-4.4s2.9,1.9,2.9,4.4c0,2.4-0.7,4.4-2.9,4.4S522.7,631.7,522.7,629.3z M527.6,629.3
			c0-2-0.4-3.6-2-3.6s-2.1,1.6-2.1,3.6s0.4,3.6,2.1,3.6C527.2,632.8,527.6,631.3,527.6,629.3z"/>
		<path d="M530,632.7h1.9v-6.2c0-0.2,0-0.5,0-0.5l0,0c0,0-0.1,0.2-0.4,0.5l-0.9,0.9l-0.5-0.5l1.9-1.9h0.8v7.7h1.9v0.7H530V632.7z"/>
		<path d="M535.7,629.7c0-2.1,1.1-4.8,3.7-4.8c0.9,0,1.5,0.3,1.5,0.3l-0.3,0.7c0,0-0.5-0.3-1.2-0.3c-1.8,0-2.7,1.7-2.8,3.4l0,0
			c0.4-0.6,1.3-1,2.1-1c1.5,0,2.6,1.1,2.6,2.7c0,1.8-1.2,2.8-2.7,2.8C536.9,633.6,535.7,631.9,535.7,629.7z M540.6,630.8
			c0-1.2-0.8-2-1.9-2c-1.1,0-2,0.8-2,1.4c0,1.1,0.9,2.6,2.1,2.6C539.9,632.8,540.6,632,540.6,630.8z"/>
	</g>
	<g class="st2">
		<path d="M579.9,620.1c0,0-0.7-0.1-1.3-0.3l-5.9-1.6v-1l8.4-2.2v0.9l-6.5,1.6c-0.4,0.1-0.9,0.2-0.9,0.2l0,0c0,0,0.5,0.1,0.9,0.2
			l6.5,1.8v0.8l-6.5,1.8c-0.4,0.1-0.9,0.2-0.9,0.2l0,0c0,0,0.5,0.1,0.9,0.2l6.5,1.7v0.9l-8.4-2.2v-1l5.9-1.6
			C579.1,620.3,579.9,620.1,579.9,620.1L579.9,620.1z"/>
		<path d="M576.9,626.5c2.4,0,4.4,0.7,4.4,2.9s-1.9,2.9-4.4,2.9c-2.4,0-4.4-0.7-4.4-2.9C572.5,627.3,574.4,626.5,576.9,626.5z
			 M576.9,631.5c2,0,3.6-0.4,3.6-2s-1.6-2.1-3.6-2.1s-3.6,0.4-3.6,2.1C573.3,631,574.9,631.5,576.9,631.5z"/>
		<path d="M573.4,633.9v1.9h6.2c0.2,0,0.5,0,0.5,0l0,0c0,0-0.2-0.1-0.5-0.4l-0.9-0.9l0.5-0.5l1.9,1.9v0.8h-7.7v1.9h-0.7V634
			L573.4,633.9L573.4,633.9z"/>
		<path d="M574.3,640c0,0-1,0.6-1,1.9c0,1.2,0.8,2.1,2,2.1s2-0.9,2-2.1c0-0.9-0.5-1.5-0.5-1.5l0.2-0.5l4.1,0.5v4.1h-0.7v-3.4
			l-2.2-0.2c-0.3,0-0.5-0.1-0.5-0.1l0,0c0,0,0.3,0.5,0.3,1.3c0,1.7-1.2,2.9-2.7,2.9c-1.6,0-2.8-1.3-2.8-2.9c0-1.7,1.2-2.5,1.2-2.5
			L574.3,640z"/>
	</g>
	<g class="st2">
		<path d="M617,626.5c0,0-0.7-0.1-1.3-0.3l-5.9-1.6v-1l8.4-2.2v0.9l-6.5,1.6c-0.4,0.1-0.9,0.2-0.9,0.2l0,0c0,0,0.5,0.1,0.9,0.2
			l6.5,1.8v0.8l-6.5,1.8c-0.4,0.1-0.9,0.2-0.9,0.2l0,0c0,0,0.5,0.1,0.9,0.2l6.5,1.7v0.9l-8.4-2.2v-1l5.9-1.6
			C616.3,626.7,617,626.5,617,626.5L617,626.5z"/>
		<path d="M614,632.9c2.4,0,4.4,0.7,4.4,2.9s-1.9,2.9-4.4,2.9c-2.4,0-4.4-0.7-4.4-2.9C609.6,633.7,611.5,632.9,614,632.9z
			 M614,637.9c2,0,3.6-0.4,3.6-2s-1.6-2.1-3.6-2.1s-3.6,0.4-3.6,2.1C610.4,637.4,612,637.9,614,637.9z"/>
		<path d="M610.5,640.3v1.9h6.2c0.2,0,0.5,0,0.5,0l0,0c0,0-0.2-0.1-0.5-0.4l-0.9-0.9l0.5-0.5l1.9,1.9v0.8h-7.7v1.9h-0.7v-4.6h0.7
			V640.3z"/>
		<path d="M612.7,645.4l5.6,4.1v0.9h-5.4v1.2h-0.7v-1.2h-2.3v-0.8h2.3v-4.2H612.7z M612.8,649.6h3.5c0.4,0,0.8,0,0.8,0l0,0
			c0,0-0.3-0.2-0.6-0.4l-3.7-2.8l0,0V649.6z"/>
	</g>
	<g class="st2">
		<path d="M670.7,643.1c0,0-0.7-0.1-1.3-0.3l-5.9-1.6v-1l8.4-2.2v0.9l-6.5,1.6c-0.4,0.1-0.9,0.2-0.9,0.2l0,0c0,0,0.5,0.1,0.9,0.2
			l6.5,1.8v0.8l-6.5,1.8c-0.4,0.1-0.9,0.2-0.9,0.2l0,0c0,0,0.5,0.1,0.9,0.2l6.5,1.7v0.9l-8.4-2.2v-1l5.9-1.6
			C670,643.3,670.7,643.2,670.7,643.1L670.7,643.1z"/>
		<path d="M667.8,649.6c2.4,0,4.4,0.7,4.4,2.9s-1.9,2.9-4.4,2.9c-2.4,0-4.4-0.7-4.4-2.9C663.4,650.3,665.3,649.6,667.8,649.6z
			 M667.8,654.5c2,0,3.6-0.4,3.6-2s-1.6-2.1-3.6-2.1s-3.6,0.4-3.6,2.1C664.2,654.1,665.7,654.5,667.8,654.5z"/>
		<path d="M664.3,656.9v1.9h6.2c0.2,0,0.5,0,0.5,0l0,0c0,0-0.2-0.1-0.5-0.4l-0.9-0.9l0.5-0.5l1.9,1.9v0.8h-7.7v1.9h-0.7V657
			L664.3,656.9L664.3,656.9z"/>
		<path d="M665.2,662.9c0,0-1,0.9-1,2.2c0,1,0.7,1.9,1.8,1.9c1.2,0,1.8-1,1.8-2.1v-0.6l0.5-0.2l2.5,2.1c0.3,0.2,0.5,0.4,0.5,0.4l0,0
			c0,0,0-0.2,0-0.7v-3.2h0.7v4.9h-0.6l-2.9-2.5c-0.1,1.1-0.7,2.6-2.5,2.6c-1.4,0-2.6-1.2-2.6-2.8c0-1.7,1.2-2.7,1.2-2.7L665.2,662.9
			z"/>
	</g>
	<g class="st2">
		<path d="M703.1,687.1c0,0-0.1,0.7-0.3,1.3l-1.6,5.9h-1l-2.2-8.4h0.9l1.6,6.5c0.1,0.4,0.2,0.9,0.2,0.9l0,0c0,0,0.1-0.5,0.2-0.9
			l1.8-6.5h0.8l1.8,6.5c0.1,0.4,0.2,0.9,0.2,0.9l0,0c0,0,0.1-0.5,0.2-0.9l1.7-6.5h0.9l-2.2,8.4h-1l-1.6-5.9
			C703.3,687.8,703.2,687.1,703.1,687.1L703.1,687.1z"/>
		<path d="M709.6,690.1c0-2.4,0.7-4.4,2.9-4.4s2.9,1.9,2.9,4.4c0,2.4-0.7,4.4-2.9,4.4C710.3,694.4,709.6,692.5,709.6,690.1z
			 M714.5,690.1c0-2-0.4-3.6-2-3.6s-2.1,1.6-2.1,3.6s0.4,3.6,2.1,3.6C714.1,693.6,714.5,692.1,714.5,690.1z"/>
		<path d="M716.9,693.5h1.9v-6.2c0-0.2,0-0.5,0-0.5l0,0c0,0-0.1,0.2-0.4,0.5l-0.9,0.9l-0.5-0.5l1.9-1.9h0.8v7.7h1.9v0.7H717
			L716.9,693.5L716.9,693.5z"/>
		<path d="M722.5,693.7c0-3,4.3-3.3,4.3-5.6c0-0.9-0.7-1.6-1.8-1.6c-1.2,0-1.9,1.2-1.9,1.2l-0.6-0.4c0,0,0.8-1.5,2.6-1.5
			c1.6,0,2.6,1,2.6,2.4c0,2.8-4.3,3.2-4.3,5.5h4.4v0.7h-5.3C722.6,694.1,722.5,693.9,722.5,693.7z"/>
	</g>
	<g class="st2">
		<path d="M516.3,669.8c0,0-0.1,0.7-0.3,1.3l-1.6,5.9h-1l-2.2-8.4h0.9l1.6,6.5c0.1,0.4,0.2,0.9,0.2,0.9l0,0c0,0,0.1-0.5,0.2-0.9
			l1.8-6.5h0.8l1.8,6.5c0.1,0.4,0.2,0.9,0.2,0.9l0,0c0,0,0.1-0.5,0.2-0.9l1.7-6.5h0.9l-2.2,8.4h-1l-1.6-5.9
			C516.4,670.5,516.3,669.8,516.3,669.8L516.3,669.8z"/>
		<path d="M522.7,672.8c0-2.4,0.7-4.4,2.9-4.4s2.9,1.9,2.9,4.4c0,2.4-0.7,4.4-2.9,4.4S522.7,675.2,522.7,672.8z M527.7,672.8
			c0-2-0.4-3.6-2-3.6s-2.1,1.6-2.1,3.6s0.4,3.6,2.1,3.6C527.2,676.4,527.7,674.8,527.7,672.8z"/>
		<path d="M530,676.3h1.9v-6.2c0-0.2,0-0.5,0-0.5l0,0c0,0-0.1,0.2-0.4,0.5l-0.9,0.9l-0.5-0.5l1.9-1.9h0.8v7.7h1.9v0.7H530V676.3z"/>
		<path d="M539.5,670.1c0.2-0.5,0.5-0.8,0.5-0.8l0,0c0,0-0.2,0-0.6,0h-3.9v-0.7h5.5v0.6l-4,7.8h-0.9L539.5,670.1z"/>
	</g>
	<g class="st2">
		<path d="M513.7,722.3c0,0-0.1,0.7-0.3,1.3l-1.6,5.9h-1l-2.2-8.4h0.9l1.6,6.5c0.1,0.4,0.2,0.9,0.2,0.9l0,0c0,0,0.1-0.5,0.2-0.9
			l1.8-6.5h0.8l1.8,6.5c0.1,0.4,0.2,0.9,0.2,0.9l0,0c0,0,0.1-0.5,0.2-0.9l1.7-6.5h0.9l-2.2,8.4h-1l-1.6-5.9
			C513.9,723,513.7,722.3,513.7,722.3L513.7,722.3z"/>
		<path d="M520.1,725.3c0-2.4,0.7-4.4,2.9-4.4s2.9,1.9,2.9,4.4c0,2.4-0.7,4.4-2.9,4.4C520.9,729.6,520.1,727.7,520.1,725.3z
			 M525.1,725.3c0-2-0.4-3.6-2-3.6s-2.1,1.6-2.1,3.6s0.4,3.6,2.1,3.6C524.6,728.8,525.1,727.3,525.1,725.3z"/>
		<path d="M527.5,728.7h1.9v-6.2c0-0.2,0-0.5,0-0.5l0,0c0,0-0.1,0.2-0.4,0.5l-0.9,0.9l-0.5-0.5l1.9-1.9h0.8v7.7h1.9v0.7h-4.6v-0.7
			H527.5z"/>
		<path d="M534.5,724.8c-0.6-0.4-1-0.9-1-1.7c0-1.1,0.8-2.1,2.5-2.1c1.6,0,2.6,0.9,2.6,2.2c0,1.2-0.9,2.2-1,2.3
			c0.7,0.4,1.2,0.9,1.2,1.8c0,1.3-1.2,2.4-2.8,2.4c-1.5,0-2.9-1-2.9-2.6C533.2,725.7,534.3,724.9,534.5,724.8z M535.2,725.1
			c-0.3,0.2-1.2,0.8-1.2,1.9c0,1.1,1,1.8,2,1.8s1.9-0.7,1.9-1.7C538,726.1,536.5,725.7,535.2,725.1z M536.9,725
			c0.2-0.1,0.9-0.9,0.9-1.9c0-0.9-0.7-1.5-1.7-1.5c-1.1,0-1.7,0.6-1.7,1.4C534.3,724.1,535.7,724.5,536.9,725z"/>
	</g>
	<g class="st2">
		<path d="M515,503.4c0,0-0.1,0.7-0.3,1.3l-1.6,5.9h-1l-2.2-8.4h0.9l1.6,6.5c0.1,0.4,0.2,0.9,0.2,0.9l0,0c0,0,0.1-0.5,0.2-0.9
			l1.8-6.5h0.8l1.8,6.5c0.1,0.4,0.2,0.9,0.2,0.9l0,0c0,0,0.1-0.5,0.2-0.9l1.7-6.5h0.9l-2.2,8.4h-1l-1.6-5.9
			C515.1,504.1,515,503.4,515,503.4L515,503.4z"/>
		<path d="M521.4,506.4c0-2.4,0.7-4.4,2.9-4.4s2.9,1.9,2.9,4.4c0,2.4-0.7,4.4-2.9,4.4C522.1,510.7,521.4,508.8,521.4,506.4z
			 M526.4,506.4c0-2-0.4-3.6-2-3.6s-2.1,1.6-2.1,3.6s0.4,3.6,2.1,3.6C525.9,510,526.4,508.4,526.4,506.4z"/>
		<path d="M528.9,506.4c0-2.4,0.7-4.4,2.9-4.4s2.9,1.9,2.9,4.4c0,2.4-0.7,4.4-2.9,4.4C529.6,510.7,528.9,508.8,528.9,506.4z
			 M533.9,506.4c0-2-0.4-3.6-2-3.6s-2.1,1.6-2.1,3.6s0.4,3.6,2.1,3.6C533.4,510,533.9,508.4,533.9,506.4z"/>
		<path d="M537.7,505.9c-0.6-0.4-1-0.9-1-1.7c0-1.1,0.8-2.1,2.5-2.1c1.6,0,2.6,0.9,2.6,2.2c0,1.2-0.9,2.2-1,2.3
			c0.7,0.4,1.2,0.9,1.2,1.8c0,1.3-1.2,2.4-2.8,2.4c-1.5,0-2.9-1-2.9-2.6C536.3,506.8,537.5,506,537.7,505.9z M538.4,506.2
			c-0.3,0.2-1.2,0.8-1.2,1.9s1,1.8,2,1.8s1.9-0.7,1.9-1.7C541.1,507.2,539.6,506.8,538.4,506.2z M540.1,506.2
			c0.2-0.1,0.9-0.9,0.9-1.9c0-0.9-0.7-1.5-1.7-1.5c-1.1,0-1.7,0.6-1.7,1.4C537.5,505.3,538.9,505.6,540.1,506.2z"/>
	</g>
	<g class="st2">
		<path d="M570,540.5c0,0-0.1,0.7-0.3,1.3l-1.6,5.9h-1l-2.2-8.4h0.9l1.6,6.5c0.1,0.4,0.2,0.9,0.2,0.9l0,0c0,0,0.1-0.5,0.2-0.9
			l1.8-6.5h0.8l1.8,6.5c0.1,0.4,0.2,0.9,0.2,0.9l0,0c0,0,0.1-0.5,0.2-0.9l1.7-6.5h0.9l-2.2,8.4h-1l-1.6-5.9
			C570.2,541.3,570,540.5,570,540.5L570,540.5z"/>
		<path d="M576.4,543.5c0-2.4,0.7-4.4,2.9-4.4s2.9,1.9,2.9,4.4c0,2.4-0.7,4.4-2.9,4.4S576.4,546,576.4,543.5z M581.4,543.5
			c0-2-0.4-3.6-2-3.6s-2.1,1.6-2.1,3.6s0.4,3.6,2.1,3.6C581,547.1,581.4,545.5,581.4,543.5z"/>
		<path d="M583.9,543.5c0-2.4,0.7-4.4,2.9-4.4s2.9,1.9,2.9,4.4c0,2.4-0.7,4.4-2.9,4.4S583.9,546,583.9,543.5z M588.9,543.5
			c0-2-0.4-3.6-2-3.6s-2.1,1.6-2.1,3.6s0.4,3.6,2.1,3.6C588.5,547.1,588.9,545.5,588.9,543.5z"/>
		<path d="M591.7,547.5l0.3-0.7c0,0,0.5,0.3,1.2,0.3c1.8,0,2.7-1.7,2.8-3.4l0,0c-0.4,0.6-1.3,1-2.1,1c-1.5,0-2.6-1.1-2.6-2.7
			c0-1.8,1.2-2.8,2.6-2.8c1.8,0,3,1.7,3,4c0,2.1-1.1,4.8-3.7,4.8C592.3,547.9,591.7,547.5,591.7,547.5z M596,542.5
			c0-1.1-0.9-2.6-2.1-2.6c-1.1,0-1.8,0.9-1.8,2c0,1.2,0.8,2,1.9,2C595.2,544,596,543.2,596,542.5z"/>
	</g>
	<g class="st2">
		<path d="M664.7,566.1c0,0-0.1,0.7-0.3,1.3l-1.6,5.9h-1l-2.2-8.4h0.9l1.6,6.5c0.1,0.4,0.2,0.9,0.2,0.9l0,0c0,0,0.1-0.5,0.2-0.9
			l1.8-6.5h0.8l1.8,6.5c0.1,0.4,0.2,0.9,0.2,0.9l0,0c0,0,0.1-0.5,0.2-0.9l1.7-6.5h0.9l-2.2,8.4h-1l-1.6-5.9
			C664.9,566.9,664.8,566.1,664.7,566.1L664.7,566.1z"/>
		<path d="M671.2,569.1c0-2.4,0.7-4.4,2.9-4.4s2.9,1.9,2.9,4.4c0,2.4-0.7,4.4-2.9,4.4S671.2,571.6,671.2,569.1z M676.1,569.1
			c0-2-0.4-3.6-2-3.6s-2.1,1.6-2.1,3.6s0.4,3.6,2.1,3.6C675.7,572.7,676.1,571.1,676.1,569.1z"/>
		<path d="M678.5,572.6h1.9v-6.2c0-0.2,0-0.5,0-0.5l0,0c0,0-0.1,0.2-0.4,0.5l-0.9,0.9l-0.5-0.5l1.9-1.9h0.8v7.7h1.9v0.7h-4.6v-0.7
			H678.5z"/>
		<path d="M684.3,569.1c0-2.4,0.7-4.4,2.9-4.4s2.9,1.9,2.9,4.4c0,2.4-0.7,4.4-2.9,4.4S684.3,571.6,684.3,569.1z M689.2,569.1
			c0-2-0.4-3.6-2-3.6s-2.1,1.6-2.1,3.6s0.4,3.6,2.1,3.6C688.8,572.7,689.2,571.1,689.2,569.1z"/>
	</g>
	<g class="st2">
		<path d="M719.8,566.1c0,0-0.1,0.7-0.3,1.3l-1.6,5.9h-1l-2.2-8.4h0.9l1.6,6.5c0.1,0.4,0.2,0.9,0.2,0.9l0,0c0,0,0.1-0.5,0.2-0.9
			l1.8-6.5h0.8l1.8,6.5c0.1,0.4,0.2,0.9,0.2,0.9l0,0c0,0,0.1-0.5,0.2-0.9l1.7-6.5h0.9l-2.2,8.4h-1l-1.6-5.9
			C719.9,566.9,719.8,566.1,719.8,566.1L719.8,566.1z"/>
		<path d="M726.2,569.1c0-2.4,0.7-4.4,2.9-4.4s2.9,1.9,2.9,4.4c0,2.4-0.7,4.4-2.9,4.4S726.2,571.6,726.2,569.1z M731.2,569.1
			c0-2-0.4-3.6-2-3.6s-2.1,1.6-2.1,3.6s0.4,3.6,2.1,3.6C730.7,572.7,731.2,571.1,731.2,569.1z"/>
		<path d="M733.5,572.6h1.9v-6.2c0-0.2,0-0.5,0-0.5l0,0c0,0-0.1,0.2-0.4,0.5l-0.9,0.9l-0.5-0.5l1.9-1.9h0.8v7.7h1.9v0.7h-4.6v-0.7
			H733.5z"/>
		<path d="M739.1,572.6h1.9v-6.2c0-0.2,0-0.5,0-0.5l0,0c0,0-0.1,0.2-0.4,0.5l-0.9,0.9l-0.5-0.5l1.9-1.9h0.8v7.7h1.9v0.7h-4.6v-0.7
			H739.1z"/>
	</g>
	<g class="st2">
		<path d="M545.7,370.7c0,0-0.1,0.7-0.3,1.3l-1.6,5.9h-1l-2.2-8.4h0.9l1.6,6.5c0.1,0.4,0.2,0.9,0.2,0.9l0,0c0,0,0.1-0.5,0.2-0.9
			l1.8-6.5h0.8l1.8,6.5c0.1,0.4,0.2,0.9,0.2,0.9l0,0c0,0,0.1-0.5,0.2-0.9l1.7-6.5h0.9l-2.2,8.4h-1L546,372
			C545.9,371.4,545.7,370.7,545.7,370.7L545.7,370.7z"/>
		<path d="M552.1,373.7c0-2.4,0.7-4.4,2.9-4.4s2.9,1.9,2.9,4.4c0,2.4-0.7,4.4-2.9,4.4S552.1,376.1,552.1,373.7z M557.1,373.7
			c0-2-0.4-3.6-2-3.6s-2.1,1.6-2.1,3.6s0.4,3.6,2.1,3.6C556.6,377.3,557.1,375.7,557.1,373.7z"/>
		<path d="M559.6,373.7c0-2.4,0.7-4.4,2.9-4.4s2.9,1.9,2.9,4.4c0,2.4-0.7,4.4-2.9,4.4S559.6,376.1,559.6,373.7z M564.6,373.7
			c0-2-0.4-3.6-2-3.6s-2.1,1.6-2.1,3.6s0.4,3.6,2.1,3.6C564.1,377.3,564.6,375.7,564.6,373.7z"/>
		<path d="M567.5,376.3c0,0,0.6,1,1.9,1c1.2,0,2.1-0.8,2.1-2s-0.9-2-2.1-2c-0.9,0-1.5,0.5-1.5,0.5l-0.5-0.2l0.5-4.1h4.1v0.7h-3.4
			l-0.2,2.2c0,0.3-0.1,0.5-0.1,0.5l0,0c0,0,0.5-0.3,1.3-0.3c1.7,0,2.9,1.2,2.9,2.7c0,1.6-1.3,2.8-2.9,2.8c-1.7,0-2.5-1.2-2.5-1.2
			L567.5,376.3z"/>
		<path d="M578.4,375.2H575l-1,2.7h-0.9l3.1-8.4h0.9l3.1,8.4h-0.9L578.4,375.2z M576.7,370.3c0,0-0.2,0.7-0.3,1.1l-1.1,3.1h2.9
			l-1.1-3.1C576.9,371,576.7,370.3,576.7,370.3L576.7,370.3z"/>
	</g>
	<g class="st2">
		<path d="M513.7,775.6c0,0-0.1,0.7-0.3,1.3l-1.6,5.9h-1l-2.2-8.4h0.9l1.6,6.5c0.1,0.4,0.2,0.9,0.2,0.9l0,0c0,0,0.1-0.5,0.2-0.9
			l1.8-6.5h0.8l1.8,6.5c0.1,0.4,0.2,0.9,0.2,0.9l0,0c0,0,0.1-0.5,0.2-0.9l1.7-6.5h0.9l-2.2,8.4h-1l-1.6-5.9
			C513.9,776.3,513.7,775.6,513.7,775.6L513.7,775.6z"/>
		<path d="M520.1,778.6c0-2.4,0.7-4.4,2.9-4.4s2.9,1.9,2.9,4.4c0,2.4-0.7,4.4-2.9,4.4S520.1,781,520.1,778.6z M525.1,778.6
			c0-2-0.4-3.6-2-3.6s-2.1,1.6-2.1,3.6s0.4,3.6,2.1,3.6C524.6,782.2,525.1,780.6,525.1,778.6z"/>
		<path d="M527.5,782.1h1.9v-6.2c0-0.2,0-0.5,0-0.5l0,0c0,0-0.1,0.2-0.4,0.5l-0.9,0.9l-0.5-0.5l1.9-1.9h0.8v7.7h1.9v0.7h-4.6v-0.7
			H527.5z"/>
		<path d="M533.5,782.6l0.3-0.7c0,0,0.5,0.3,1.2,0.3c1.8,0,2.7-1.7,2.8-3.4l0,0c-0.4,0.6-1.3,1-2.1,1c-1.5,0-2.6-1.1-2.6-2.7
			c0-1.8,1.2-2.8,2.6-2.8c1.8,0,3,1.7,3,4c0,2.1-1.1,4.8-3.7,4.8C534.1,783,533.5,782.6,533.5,782.6z M537.8,777.6
			c0-1.1-0.9-2.6-2.1-2.6c-1.1,0-1.8,0.9-1.8,2c0,1.2,0.8,2,1.9,2C536.9,779,537.8,778.3,537.8,777.6z"/>
	</g>
	<g>
		<g class="st2">
			<path d="M881.8,990.4c0,0,0.9,0.9,2.2,0.9c0.9,0,1.7-0.6,1.7-1.5c0-2.1-4.2-1.6-4.2-4.2c0-1.2,1.1-2.3,2.6-2.3s2.3,0.8,2.3,0.8
				L886,985c0,0-0.7-0.7-1.8-0.7s-1.8,0.7-1.8,1.5c0,2,4.2,1.4,4.2,4.2c0,1.3-1,2.3-2.6,2.3c-1.7,0-2.7-1.1-2.7-1.1L881.8,990.4z"/>
			<path d="M888,987.8c0-2.4,0.7-4.4,2.9-4.4s2.9,1.9,2.9,4.4c0,2.4-0.7,4.4-2.9,4.4S888,990.2,888,987.8z M893,987.8
				c0-2-0.4-3.6-2-3.6s-2.1,1.6-2.1,3.6s0.4,3.6,2.1,3.6C892.5,991.4,893,989.8,893,987.8z"/>
			<path d="M895.5,987.8c0-2.4,0.7-4.4,2.9-4.4s2.9,1.9,2.9,4.4c0,2.4-0.7,4.4-2.9,4.4S895.5,990.2,895.5,987.8z M900.5,987.8
				c0-2-0.4-3.6-2-3.6s-2.1,1.6-2.1,3.6s0.4,3.6,2.1,3.6C900,991.4,900.5,989.8,900.5,987.8z"/>
			<path d="M902.8,991.3h1.9v-6.2c0-0.2,0-0.5,0-0.5l0,0c0,0-0.1,0.2-0.4,0.5l-0.9,0.9l-0.5-0.5l1.9-1.9h0.8v7.7h1.9v0.7h-4.6v-0.7
				H902.8z"/>
			<path d="M914.4,992v0.7h-6.2V992H914.4z"/>
			<path d="M916,983.6h0.8v7.7h3.9v0.7H916V983.6z"/>
			<path d="M925.5,983.4c2,0,3,1,3,1l-0.4,0.6c0,0-1-0.8-2.5-0.8c-2,0-3.4,1.6-3.4,3.6c0,2.1,1.4,3.6,3.3,3.6c1.6,0,2.7-1.2,2.7-1.2
				v-1.4h-1.4V988h2.2v4h-0.8v-0.6c0-0.2,0-0.4,0-0.4l0,0c0,0-1,1.1-2.7,1.1c-2.3,0-4.1-1.9-4.1-4.4
				C921.3,985.4,923.1,983.4,925.5,983.4z"/>
		</g>
	</g>
	<g>
		<g class="st2">
			<path d="M834.5,1357.7c0,0,0.9,0.9,2.2,0.9c0.9,0,1.7-0.6,1.7-1.5c0-2.1-4.2-1.6-4.2-4.2c0-1.2,1.1-2.3,2.6-2.3s2.3,0.8,2.3,0.8
				l-0.4,0.7c0,0-0.7-0.7-1.8-0.7s-1.8,0.7-1.8,1.5c0,2,4.2,1.4,4.2,4.2c0,1.3-1,2.3-2.6,2.3c-1.7,0-2.7-1.1-2.7-1.1L834.5,1357.7z"
				/>
			<path d="M840.7,1355.1c0-2.4,0.7-4.4,2.9-4.4s2.9,1.9,2.9,4.4c0,2.4-0.7,4.4-2.9,4.4S840.7,1357.5,840.7,1355.1z M845.6,1355.1
				c0-2-0.4-3.6-2-3.6s-2.1,1.6-2.1,3.6s0.4,3.6,2.1,3.6C845.2,1358.7,845.6,1357.1,845.6,1355.1z"/>
			<path d="M848.2,1355.1c0-2.4,0.7-4.4,2.9-4.4s2.9,1.9,2.9,4.4c0,2.4-0.7,4.4-2.9,4.4S848.2,1357.5,848.2,1355.1z M853.1,1355.1
				c0-2-0.4-3.6-2-3.6s-2.1,1.6-2.1,3.6s0.4,3.6,2.1,3.6C852.7,1358.7,853.1,1357.1,853.1,1355.1z"/>
			<path d="M855.6,1358.8c0-3,4.3-3.3,4.3-5.6c0-0.9-0.7-1.6-1.8-1.6c-1.2,0-1.9,1.2-1.9,1.2l-0.6-0.4c0,0,0.8-1.5,2.6-1.5
				c1.6,0,2.6,1,2.6,2.4c0,2.8-4.3,3.2-4.3,5.5h4.4v0.7h-5.3C855.6,1359.1,855.6,1358.9,855.6,1358.8z"/>
			<path d="M862.9,1355.5h3.4v0.7h-3.4V1355.5z"/>
			<path d="M868.5,1350.9h0.8v7.7h3.9v0.7h-4.7V1350.9z"/>
			<path d="M878.1,1350.7c2,0,3,1,3,1l-0.4,0.6c0,0-1-0.8-2.5-0.8c-2,0-3.4,1.6-3.4,3.6c0,2.1,1.4,3.6,3.3,3.6
				c1.6,0,2.7-1.2,2.7-1.2v-1.4h-1.4v-0.7h2.2v4h-0.8v-0.6c0-0.2,0-0.4,0-0.4l0,0c0,0-1,1.1-2.7,1.1c-2.3,0-4.1-1.9-4.1-4.4
				C873.8,1352.7,875.6,1350.7,878.1,1350.7z"/>
		</g>
	</g>
	<g>
		<g class="st2">
			<path d="M1269.1,1284.6c0,0,0.9,0.9,2.2,0.9c0.9,0,1.7-0.6,1.7-1.5c0-2.1-4.2-1.6-4.2-4.2c0-1.2,1.1-2.3,2.6-2.3s2.3,0.8,2.3,0.8
				l-0.4,0.7c0,0-0.7-0.7-1.8-0.7c-1.1,0-1.8,0.7-1.8,1.5c0,2,4.2,1.4,4.2,4.2c0,1.3-1,2.3-2.6,2.3c-1.7,0-2.7-1.1-2.7-1.1
				L1269.1,1284.6z"/>
			<path d="M1279,1279.2c0.2-0.5,0.5-0.8,0.5-0.8l0,0c0,0-0.2,0-0.6,0h-3.9v-0.7h5.5v0.6l-3.9,7.9h-0.9L1279,1279.2z"/>
			<path d="M1281.6,1281.9c0-2.4,0.7-4.4,2.9-4.4c2.2,0,2.9,1.9,2.9,4.4c0,2.4-0.7,4.4-2.9,4.4
				C1282.3,1286.3,1281.6,1284.3,1281.6,1281.9z M1286.5,1281.9c0-2-0.4-3.6-2-3.6s-2.1,1.6-2.1,3.6s0.4,3.6,2.1,3.6
				C1286.1,1285.5,1286.5,1283.9,1286.5,1281.9z"/>
			<path d="M1288.9,1285.4h1.9v-6.2c0-0.2,0-0.5,0-0.5l0,0c0,0-0.1,0.2-0.4,0.5l-0.9,0.9l-0.5-0.5l1.9-1.9h0.8v7.7h1.9v0.7h-4.6
				v-0.7H1288.9z"/>
			<path d="M1300.4,1286.1v0.7h-6.2v-0.7H1300.4z"/>
			<path d="M1302,1277.7h0.8v7.7h3.9v0.7h-4.7L1302,1277.7L1302,1277.7z"/>
			<path d="M1311.6,1277.5c2,0,3,1,3,1l-0.4,0.6c0,0-1-0.8-2.5-0.8c-2,0-3.4,1.6-3.4,3.6c0,2.1,1.4,3.6,3.3,3.6
				c1.6,0,2.7-1.2,2.7-1.2v-1.4h-1.4v-0.7h2.2v4h-0.8v-0.6c0-0.2,0-0.4,0-0.4l0,0c0,0-1,1.1-2.7,1.1c-2.3,0-4.1-1.9-4.1-4.4
				C1307.3,1279.5,1309.2,1277.5,1311.6,1277.5z"/>
		</g>
	</g>
	<g>
		<g class="st2">
			<path d="M1009.5,1357.8c0,0,0.9,0.9,2.2,0.9c0.9,0,1.7-0.6,1.7-1.5c0-2.1-4.2-1.6-4.2-4.2c0-1.2,1.1-2.3,2.6-2.3s2.3,0.8,2.3,0.8
				l-0.4,0.7c0,0-0.7-0.7-1.8-0.7s-1.8,0.7-1.8,1.5c0,2,4.2,1.4,4.2,4.2c0,1.3-1,2.3-2.6,2.3c-1.7,0-2.7-1.1-2.7-1.1L1009.5,1357.8z
				"/>
			<path d="M1015.7,1355.1c0-2.4,0.7-4.4,2.9-4.4s2.9,1.9,2.9,4.4c0,2.4-0.7,4.4-2.9,4.4S1015.7,1357.6,1015.7,1355.1z
				 M1020.6,1355.1c0-2-0.4-3.6-2-3.6s-2.1,1.6-2.1,3.6s0.4,3.6,2.1,3.6C1020.2,1358.7,1020.6,1357.1,1020.6,1355.1z"/>
			<path d="M1023.2,1355.1c0-2.4,0.7-4.4,2.9-4.4s2.9,1.9,2.9,4.4c0,2.4-0.7,4.4-2.9,4.4C1023.9,1359.5,1023.2,1357.6,1023.2,1355.1
				z M1028.1,1355.1c0-2-0.4-3.6-2-3.6s-2.1,1.6-2.1,3.6s0.4,3.6,2.1,3.6C1027.7,1358.7,1028.1,1357.1,1028.1,1355.1z"/>
			<path d="M1030.9,1357.7c0,0,0.9,1,2.2,1c1,0,1.9-0.7,1.9-1.8c0-1.2-1-1.8-2.1-1.8h-0.6l-0.2-0.5l2.1-2.5c0.2-0.3,0.4-0.5,0.4-0.5
				l0,0c0,0-0.2,0-0.7,0h-3.2v-0.7h4.9v0.6l-2.5,2.9c1.1,0.1,2.6,0.7,2.6,2.5c0,1.4-1.2,2.6-2.8,2.6c-1.7,0-2.7-1.2-2.7-1.2
				L1030.9,1357.7z"/>
			<path d="M1043.2,1359.3v0.7h-6.2v-0.7H1043.2z"/>
			<path d="M1044.8,1350.9h0.8v7.7h3.9v0.7h-4.7L1044.8,1350.9L1044.8,1350.9z"/>
			<path d="M1054.4,1350.8c2,0,3,1,3,1l-0.4,0.6c0,0-1-0.8-2.5-0.8c-2,0-3.4,1.6-3.4,3.6c0,2.1,1.4,3.6,3.3,3.6
				c1.6,0,2.7-1.2,2.7-1.2v-1.4h-1.4v-0.7h2.2v4h-0.8v-0.6c0-0.2,0-0.4,0-0.4l0,0c0,0-1,1.1-2.7,1.1c-2.3,0-4.1-1.9-4.1-4.4
				C1050.1,1352.7,1052,1350.8,1054.4,1350.8z"/>
		</g>
	</g>
	<g>
		<g class="st2">
			<path d="M1208,1162c0,0,0.9-0.9,0.9-2.2c0-0.9-0.6-1.7-1.5-1.7c-2.1,0-1.6,4.2-4.2,4.2c-1.2,0-2.3-1.1-2.3-2.6s0.8-2.3,0.8-2.3
				l0.7,0.4c0,0-0.7,0.7-0.7,1.8c0,1.1,0.7,1.8,1.5,1.8c2,0,1.4-4.2,4.2-4.2c1.3,0,2.3,1,2.3,2.6c0,1.7-1.1,2.7-1.1,2.7L1208,1162z"
				/>
			<path d="M1205.3,1155.8c-2.4,0-4.4-0.7-4.4-2.9s1.9-2.9,4.4-2.9c2.4,0,4.4,0.7,4.4,2.9S1207.8,1155.8,1205.3,1155.8z
				 M1205.3,1150.8c-2,0-3.6,0.4-3.6,2s1.6,2.1,3.6,2.1s3.6-0.4,3.6-2.1C1208.9,1151.3,1207.3,1150.8,1205.3,1150.8z"/>
			<path d="M1209,1148.4c-3,0-3.3-4.3-5.6-4.3c-0.9,0-1.6,0.7-1.6,1.8c0,1.2,1.2,1.9,1.2,1.9l-0.4,0.6c0,0-1.5-0.8-1.5-2.6
				c0-1.6,1-2.6,2.4-2.6c2.8,0,3.2,4.3,5.5,4.3v-4.4h0.7v5.3C1209.3,1148.4,1209.2,1148.4,1209,1148.4z"/>
			<path d="M1205.3,1141.5c-2.4,0-4.4-0.7-4.4-2.9c0-2.2,1.9-2.9,4.4-2.9c2.4,0,4.4,0.7,4.4,2.9
				C1209.7,1140.8,1207.8,1141.5,1205.3,1141.5z M1205.3,1136.5c-2,0-3.6,0.4-3.6,2s1.6,2.1,3.6,2.1s3.6-0.4,3.6-2.1
				C1208.9,1137,1207.3,1136.5,1205.3,1136.5z"/>
			<path d="M1209.5,1128.2h0.7v6.2h-0.7V1128.2z"/>
			<path d="M1201.1,1126.6v-0.8h7.7v-3.9h0.7v4.7L1201.1,1126.6L1201.1,1126.6z"/>
			<path d="M1201,1117.1c0-2,1-3,1-3l0.6,0.4c0,0-0.8,1-0.8,2.5c0,2,1.6,3.4,3.6,3.4c2.1,0,3.6-1.4,3.6-3.3c0-1.6-1.2-2.7-1.2-2.7
				h-1.4v1.4h-0.7v-2.2h4v0.8h-0.6c-0.2,0-0.4,0-0.4,0l0,0c0,0,1.1,1,1.1,2.7c0,2.3-1.9,4.1-4.4,4.1
				C1202.9,1121.3,1201,1119.5,1201,1117.1z"/>
		</g>
	</g>
	<g>
		<g class="st2">
			<path d="M1142.6,1359.4c0,0,0.9,0.9,2.2,0.9c0.9,0,1.7-0.6,1.7-1.5c0-2.1-4.2-1.6-4.2-4.2c0-1.2,1.1-2.3,2.6-2.3s2.3,0.8,2.3,0.8
				l-0.4,0.7c0,0-0.7-0.7-1.8-0.7c-1.1,0-1.8,0.7-1.8,1.5c0,2,4.2,1.4,4.2,4.2c0,1.3-1,2.3-2.6,2.3c-1.7,0-2.7-1.1-2.7-1.1
				L1142.6,1359.4z"/>
			<path d="M1148.8,1356.7c0-2.4,0.7-4.4,2.9-4.4c2.2,0,2.9,1.9,2.9,4.4c0,2.4-0.7,4.4-2.9,4.4S1148.8,1359.2,1148.8,1356.7z
				 M1153.8,1356.7c0-2-0.4-3.6-2-3.6s-2.1,1.6-2.1,3.6s0.4,3.6,2.1,3.6C1153.3,1360.3,1153.8,1358.8,1153.8,1356.7z"/>
			<path d="M1156.3,1356.7c0-2.4,0.7-4.4,2.9-4.4c2.2,0,2.9,1.9,2.9,4.4c0,2.4-0.7,4.4-2.9,4.4S1156.3,1359.2,1156.3,1356.7z
				 M1161.3,1356.7c0-2-0.4-3.6-2-3.6s-2.1,1.6-2.1,3.6s0.4,3.6,2.1,3.6C1160.8,1360.3,1161.3,1358.8,1161.3,1356.7z"/>
			<path d="M1164,1359.3c0,0,0.9,1,2.2,1c1,0,1.9-0.7,1.9-1.8c0-1.2-1-1.8-2.1-1.8h-0.6l-0.2-0.5l2.1-2.5c0.2-0.3,0.4-0.5,0.4-0.5
				l0,0c0,0-0.2,0-0.7,0h-3.2v-0.7h4.9v0.6l-2.5,2.9c1.1,0.1,2.6,0.7,2.6,2.5c0,1.4-1.2,2.6-2.8,2.6c-1.7,0-2.7-1.2-2.7-1.2
				L1164,1359.3z"/>
			<path d="M1176.3,1361v0.7h-6.2v-0.7H1176.3z"/>
			<path d="M1177.9,1352.5h0.8v7.7h3.9v0.7h-4.7L1177.9,1352.5L1177.9,1352.5z"/>
			<path d="M1187.5,1352.4c2,0,3,1,3,1l-0.4,0.6c0,0-1-0.8-2.5-0.8c-2,0-3.4,1.6-3.4,3.6c0,2.1,1.4,3.6,3.3,3.6
				c1.6,0,2.7-1.2,2.7-1.2v-1.4h-1.4v-0.7h2.2v4h-0.8v-0.6c0-0.2,0-0.4,0-0.4l0,0c0,0-1,1.1-2.7,1.1c-2.3,0-4.1-1.9-4.1-4.4
				C1183.2,1354.3,1185.1,1352.4,1187.5,1352.4z"/>
			<path d="M1192.4,1360.2h1.9v-6.2c0-0.2,0-0.5,0-0.5l0,0c0,0-0.1,0.2-0.4,0.5l-0.9,0.9l-0.5-0.5l1.9-1.9h0.8v7.7h1.9v0.7h-4.6
				v-0.7H1192.4z"/>
		</g>
	</g>
	<g>
		<path class="st13" d="M883.4,948.6c0.4,0.7,0.6,1.7,0.2,2.4c-0.4,0.9-1.4,1.5-2.4,1.6c-1,0-1.9-0.5-2.4-1.4
			c-0.3-0.6-0.3-1.4-0.1-2.1c0.4-0.9,1.2-1.6,2.2-1.7C881.9,947.5,882.8,947.8,883.4,948.6 M895.8,941.9h0.2c2-1.7,5.3-2.1,7.6-0.9
			c2.2,1.1,3.7,3.4,3.8,5.8v9.9h-4.7V947c-0.1-0.8-0.6-1.8-1.5-2c-0.8-0.2-1.7,0-2.3,0.7c-0.6,0.6-0.7,1.3-0.6,2.1v8.9h-4.7v-9.8
			c0-0.9-0.7-1.6-1.5-1.9c-0.8-0.3-1.7,0-2.2,0.5c-0.4,0.4-0.7,1-0.7,1.6v9.7h-4.7v-9.6c0.1-2.8,2-5.4,4.6-6.4
			C891.3,939.8,894,940.4,895.8,941.9 M920,941.4c0.2-0.1,0.1-0.5,0.1-0.7h10.7c0.6,0.6,1,1.3,1.5,2c0,0.2-0.4,0.1-0.4,0.4l4,5.4
			l1.6,2.1l-0.1,0.2c-0.8,1.1-1.6,2.2-2.5,3.3h-0.1c-0.5-0.6-1-1.4-1.6-2h-0.1l-3.4,4.4l-0.2,0.1h-9.6v-0.7
			c-0.2-0.1-0.3,0.1-0.5,0.2c-2.2,1.5-5.7,1.2-7.9-0.3c-2.9-1.9-4.4-5.3-3.8-8.7c0.5-3,3.1-5.9,6.1-6.6
			C916,939.9,918.4,940.2,920,941.4 M919.6,946.7c-0.8-1.2-2.1-2-3.6-1.8c-1.4,0.1-2.7,1.1-3.2,2.4c-0.5,1.2-0.3,2.6,0.5,3.6
			c0.8,1.1,2.1,1.7,3.6,1.5c1.2-0.2,2.4-1,2.9-2.1C920.3,949.2,920.2,947.7,919.6,946.7 M929.9,947.4l-4.7-6.3h-0.1l-0.1,0.2v13.3
			c0.1,0,0.1-0.1,0.2-0.1l4.9-6.5C930.2,947.7,930,947.6,929.9,947.4 M941.8,940.4c-0.6,0.9-1.3,1.8-2,2.7h-0.1
			c-0.3-0.2-0.4-0.7-0.9-0.6h-4.6c0,0-0.1,0-0.1-0.1c0.5-0.7,0.9-1.3,1.5-2l0.2-0.1h5.8L941.8,940.4L941.8,940.4z M866.1,945h-4.5
			v11.3h-4.9V945h-4.5v-4.7H866L866.1,945L866.1,945z"/>
		<path class="st13" d="M939,942.9c0.8,0.9,1.5,2,2.3,2.9h0.2c0.7-0.9,1.4-1.9,2.1-2.8h5.7c0.1,0,0.1,0.2,0,0.2l-4.7,6.7
			c-0.2,0.2-0.1,0.4,0.1,0.6l4.3,5.9c1.6,2,3.2,4.2,4.7,6.3c0,0.1-0.1,0.1-0.2,0.1h-5.9l-6.1-8.1l-0.2-0.1c-1,1.1-1.7,2.4-2.7,3.5
			h-6.2V958l5.6-7.6c0.1-0.2-0.1-0.3-0.1-0.4l-5.1-6.9l0.1-0.1L939,942.9L939,942.9z M862.2,950.1c0-1.4,1.2-2.6,2.6-2.6
			c1.4,0,2.6,1.2,2.6,2.6c0,1.4-1.2,2.6-2.6,2.6C863.4,952.7,862.2,951.5,862.2,950.1 M872.7,940.3v15.9h-4.8v-15.9H872.7z"/>
		<path class="st13" d="M872.6,947.9c0.7-0.9,3.1-4,3.8-4.9h5.7c0.1,0,0.1,0.2,0,0.2l-4.7,6.7c-0.2,0.2-0.1,0.4,0.1,0.6l4.3,5.9
			c1.6,2,3.2,4.2,4.7,6.3c0.1,0.1-0.1,0.1-0.2,0.1h-5.9l-7.7-10.3L872.6,947.9L872.6,947.9z M953.1,945.1c0,1.1-0.9,2-2,2
			s-2-0.9-2-2s0.9-2,2-2S953.1,944,953.1,945.1 M952.9,945.1c0-1-0.8-1.7-1.7-1.7c-1,0-1.7,0.8-1.7,1.7c0,1,0.8,1.7,1.7,1.7
			S952.9,946,952.9,945.1"/>
		<path class="st13" d="M950.4,946.1v-2.2h1c0.3,0,0.7,0.1,0.7,0.6c0,0.3-0.1,0.4-0.3,0.5c0.2,0.1,0.2,0.2,0.3,0.5
			c0,0.3,0,0.3,0.1,0.5h-0.3v-0.3c0-0.3,0.1-0.7-0.4-0.7h-0.8v0.9h-0.3V946.1z M951.4,944.2h-0.7v0.7h0.7c0.2,0,0.4-0.1,0.4-0.3
			C951.8,944.2,951.6,944.2,951.4,944.2"/>
	</g>
	<g>
		<polygon class="st11" points="899.7,859 899.7,907.3 890.8,907.3 890.8,859 892.4,859 		"/>
		<polygon class="st9" points="899.7,859 899.7,907.3 890.8,907.3 890.8,859 892.4,859 		"/>
		<polygon class="st11" points="890.7,859 890.7,907.3 881.8,907.3 881.8,859 883.5,859 		"/>
		<polygon class="st9" points="890.7,859 890.7,907.3 881.8,907.3 881.8,859 883.5,859 		"/>
		<line class="st9" x1="890.6" y1="886.6" x2="899.7" y2="886.6"/>
		<line class="st9" x1="890.6" y1="889.1" x2="899.7" y2="889.1"/>
		<line class="st9" x1="890.6" y1="884.1" x2="899.7" y2="884.1"/>
		<line class="st9" x1="890.6" y1="891.6" x2="899.7" y2="891.6"/>
		<line class="st9" x1="890.6" y1="894.1" x2="899.7" y2="894.1"/>
		<line class="st9" x1="890.6" y1="896.6" x2="899.7" y2="896.6"/>
		<line class="st9" x1="890.6" y1="876.6" x2="899.7" y2="876.6"/>
		<line class="st9" x1="890.6" y1="879.1" x2="899.7" y2="879.1"/>
		<line class="st9" x1="890.6" y1="881.6" x2="899.7" y2="881.6"/>
		<rect x="898.3" y="859" class="st10" width="1.5" height="41.6"/>
		<line class="st9" x1="881.8" y1="886.6" x2="890.6" y2="886.6"/>
		<line class="st9" x1="881.8" y1="889.1" x2="890.6" y2="889.1"/>
		<line class="st9" x1="881.8" y1="884.1" x2="890.6" y2="884.1"/>
		<line class="st9" x1="881.8" y1="891.6" x2="890.6" y2="891.6"/>
		<line class="st9" x1="881.8" y1="894.1" x2="890.6" y2="894.1"/>
		<line class="st9" x1="881.8" y1="896.6" x2="890.6" y2="896.6"/>
		<line class="st9" x1="881.8" y1="876.6" x2="890.6" y2="876.6"/>
		<line class="st9" x1="881.8" y1="879.1" x2="890.6" y2="879.1"/>
		<line class="st9" x1="881.8" y1="881.6" x2="890.6" y2="881.6"/>
		<line class="st9" x1="890.6" y1="864.1" x2="899.7" y2="864.1"/>
		<line class="st9" x1="890.6" y1="866.6" x2="899.7" y2="866.6"/>
		<line class="st9" x1="890.6" y1="861.6" x2="899.7" y2="861.6"/>
		<line class="st9" x1="890.6" y1="869.1" x2="899.7" y2="869.1"/>
		<line class="st9" x1="890.6" y1="871.6" x2="899.7" y2="871.6"/>
		<line class="st9" x1="890.6" y1="874.1" x2="899.7" y2="874.1"/>
		<line class="st9" x1="881.8" y1="864.1" x2="890.6" y2="864.1"/>
		<line class="st9" x1="881.8" y1="866.6" x2="890.6" y2="866.6"/>
		<line class="st9" x1="881.8" y1="861.6" x2="890.6" y2="861.6"/>
		<line class="st9" x1="881.8" y1="869.1" x2="890.6" y2="869.1"/>
		<line class="st9" x1="881.8" y1="871.6" x2="890.6" y2="871.6"/>
		<line class="st9" x1="881.8" y1="874.1" x2="890.6" y2="874.1"/>
		<polygon class="st10" points="892.2,859 891.1,859 890.8,859 889.3,859 889.3,900.6 890.8,900.6 891.1,900.6 892.2,900.6 		"/>
		<rect x="881.8" y="859" class="st10" width="1.5" height="41.6"/>
		<rect x="890.4" y="860.4" class="st11" width="0.7" height="39.2"/>
		<path class="st12" d="M891,921.5c5.6,0,10.2-4.6,10.2-10.2c0-5.7-4.6-10.2-10.2-10.2c-5.7,0-10.2,4.6-10.2,10.2
			C880.7,916.9,885.3,921.5,891,921.5"/>
		<path class="st11" d="M891.1,909l2.2-2.2c0.4-0.4,1-0.6,1.5-0.6h2.4c0.8,0,1.8,0.8,1.8,2s-1,2-1.8,2c-0.6,0-1.5,0-1.5,0
			c-0.2,0-0.3,0-0.4,0.2l-6.1,6c-0.5,0.5-1.1,0.7-1.6,0.6c-0.5,0-2.1,0-2.1,0c-1.3,0-2-1.1-2-2s0.7-1.9,1.9-1.9h1.2
			c0.4,0,0.4,0,0.6-0.2l1.9-1.9v-2.6c0-1.4,2-1.4,2,0L891.1,909 M890.1,907.1c0.6,0,1-0.5,1-1s-0.5-1-1-1c-0.6,0-1,0.4-1,1
			C889.1,906.7,889.5,907.1,890.1,907.1 M894.9,907.2c-0.4,0-0.7,0-1,0.3l-6.2,6.2c-0.2,0.2-0.5,0.3-0.9,0.3h-1.4
			c-0.5,0-0.9,0.3-0.9,0.9c0,0.6,0.4,1,1,1h2c0.4,0,0.7-0.1,0.9-0.4l6.1-6.1c0.3-0.3,0.6-0.4,1.1-0.4h1.3c0.6,0,0.9-0.6,0.9-1
			c0-0.3-0.3-0.9-0.9-0.9h-2"/>
	</g>
	<path class="st12" d="M721.7,528.9c7.1,0,12.8-5.7,12.8-12.8c0-7.1-5.7-12.8-12.8-12.8s-12.8,5.7-12.8,12.8
		S714.6,528.9,721.7,528.9"/>
	<rect x="721.7" y="508.2" class="st11" width="0.8" height="15.9"/>
	<path class="st11" d="M716.6,510.7c0.7,0,1.3-0.6,1.3-1.3c0-0.7-0.6-1.3-1.3-1.3s-1.3,0.6-1.3,1.3S715.9,510.7,716.6,510.7"/>
	<path class="st11" d="M716.4,519v4.6c0,0.8-1.2,0.8-1.2,0V519h-1.6l1.8-6.1h-0.3l-1,3.5c-0.2,0.8-1.3,0.4-1-0.4l1.1-3.8
		c0.1-0.4,0.7-1.2,1.6-1.2h0.9h0.9c0.9,0,1.5,0.8,1.6,1.2l1.1,3.8c0.2,0.8-0.8,1.1-1,0.4l-1-3.5H718l1.8,6.1h-1.6v4.6
		c0,0.8-1.2,0.8-1.2,0V519H716.4z"/>
	<path class="st11" d="M726,511.1c-0.9,0-1.7,0.8-1.7,1.7v4c0,0.8,1.1,0.8,1.1,0v-3.7h0.3v10.3c0,1.1,1.5,1,1.5,0v-6h0.3v6
		c0,1,1.5,1.1,1.5,0v-10.3h0.3v3.7c0,0.8,1.1,0.8,1.1,0v-4c0-0.9-0.7-1.7-1.7-1.7L726,511.1L726,511.1z"/>
	<path class="st11" d="M727.4,510.7c0.7,0,1.3-0.6,1.3-1.3c0-0.7-0.6-1.3-1.3-1.3s-1.3,0.6-1.3,1.3
		C726,510.1,726.6,510.7,727.4,510.7"/>
	<path class="st12" d="M695.3,528.9c7.1,0,12.8-5.7,12.8-12.8c0-7.1-5.7-12.8-12.8-12.8s-12.8,5.7-12.8,12.8
		S688.2,528.9,695.3,528.9"/>
	<path class="st11" d="M693.9,524.7c2.4,0,4.5-1.5,5.2-3.7l-0.9-1.4c-0.2,2.2-2.1,3.9-4.4,3.9c-2.4,0-4.4-2-4.4-4.4
		c0-1.3,0.5-2.4,1.4-3.2v-1.5c-1.6,1-2.6,2.7-2.6,4.7C688.4,522.2,690.9,524.7,693.9,524.7"/>
	<path class="st11" d="M693.9,518.3h4.4l2.1,3.6l0,0c0.2,0.4,0.8,0.6,1.2,0.3s0.6-0.8,0.3-1.2l-2.7-4.4c-0.2-0.3-0.4-0.4-0.8-0.4
		h-3.9v-0.9h2.7c0.4,0,0.7-0.3,0.7-0.7s-0.3-0.7-0.7-0.7h-2.7v-1.3c0-0.9-0.7-1.6-1.6-1.6c-0.9,0-1.6,0.7-1.6,1.6v3.8
		C691.5,517.6,692.3,518.4,693.9,518.3"/>
	<path class="st11" d="M693.1,510.7c0.8,0,1.5-0.7,1.5-1.5s-0.7-1.5-1.5-1.5c-0.9,0-1.5,0.7-1.5,1.5
		C691.5,510,692.2,510.7,693.1,510.7"/>
	<path class="st12" d="M748.1,528.9c7.1,0,12.8-5.7,12.8-12.8c0-7.1-5.7-12.8-12.8-12.8s-12.8,5.7-12.8,12.8S741,528.9,748.1,528.9"
		/>
	<path class="st11" d="M750.1,517.7l0.3-0.6c0.2-0.4,0.1-0.9-0.3-1.1c0,0-1.1-0.6-1.5-0.9c-0.3-0.2-0.6-0.1-0.8,0.2
		s-0.1,0.6,0.2,0.8s0.7,0.4,0.9,0.5l-0.5,0.9c-0.1,0.2-0.2,0.5-0.2,0.7c0,0.8,0.7,1.5,1.5,1.5h2c0.4,0,0.8-0.3,0.8-0.8v-2.4
		c0-0.3-0.2-0.5-0.5-0.5s-0.5,0.2-0.5,0.5v1h-1.4V517.7z M750.1,510.7c0.9,0,1.6-0.7,1.6-1.5c0-0.9-0.7-1.6-1.6-1.6
		c-0.9,0-1.5,0.7-1.5,1.6C748.6,510,749.3,510.7,750.1,510.7 M745.7,513.7l2-1.1v1.1c0,0.2,0.1,0.5,0.3,0.6c0.3,0.2,2,1.2,2.5,1.4
		c0.3,0.2,0.7,0.1,0.8-0.2c0.2-0.3,0.1-0.7-0.2-0.8c-0.3-0.2-1.5-0.9-2.2-1.3c0-0.7,0-2.3,0-2.4c0-0.2-0.1-0.4-0.2-0.7
		c-0.4-0.7-1.3-0.9-1.9-0.5l-3.2,1.8c-0.8,0.4-1.3,1.1-1.6,2l-1.2,4.2h2.3v6.1c0,0.4,0.4,0.8,0.8,0.8c0.4,0,0.8-0.3,0.8-0.8v-6.1
		h2.2L745.7,513.7z M754.1,519.9c0.7,0,1.2-0.5,1.2-1.2s-0.5-1.2-1.2-1.2s-1.2,0.5-1.2,1.2S753.4,519.9,754.1,519.9 M755.3,520.6
		c0,0.3-0.2,0.5-0.5,0.5h-6.7c-0.2,0-0.5-0.2-0.5-0.5c0-0.2,0.2-0.5,0.5-0.5h6.7C755.1,520.2,755.3,520.4,755.3,520.6"/>
	<line class="st14" x1="509.3" y1="523.4" x2="523.3" y2="537.6"/>
	<line class="st14" x1="523.3" y1="523.4" x2="509.3" y2="537.6"/>
	<rect x="509.3" y="523.4" class="st9" width="14" height="14.1"/>
	<line class="st14" x1="526" y1="523.4" x2="540" y2="537.6"/>
	<line class="st14" x1="540" y1="523.4" x2="526" y2="537.6"/>
	<rect x="526" y="523.4" class="st9" width="14" height="14.1"/>
	<polyline class="st9" points="506.6,538.3 506.6,520.2 543,520.2 543,538.3 	"/>
	<path class="st12" d="M523.8,550.1c5.7,0,10.2-4.6,10.2-10.2c0-5.7-4.6-10.2-10.2-10.2c-5.7,0-10.2,4.6-10.2,10.2
		S518.2,550.1,523.8,550.1"/>
	<path class="st11" d="M519.2,546.2v-6.7c0-0.7,0.5-1.2,1.2-1.2h6.7c0.7,0,1.2,0.5,1.2,1.2v6.7c0,0.7-0.5,1.2-1.2,1.2h-6.7
		C519.8,547.4,519.3,546.8,519.2,546.2 M520.5,546.2h6.8v-6.7h-6.8V546.2z M525.5,533v2.7l-0.7-0.9c-0.5-0.5-1.3,0.2-0.8,0.8l1.7,2
		c0.2,0.3,0.6,0.3,0.8,0l1.7-2c0.5-0.6-0.3-1.3-0.8-0.8l-0.7,0.9V533C526.8,532.1,525.5,532.1,525.5,533 M520.9,537.2
		c0,0.9,1.2,0.9,1.2,0v-2.7l0.7,0.8c0.5,0.5,1.3-0.2,0.8-0.8l-1.7-2c-0.3-0.3-0.6-0.3-0.9,0l-1.7,2c-0.5,0.6,0.3,1.3,0.8,0.8
		l0.7-0.8L520.9,537.2 M523.9,541.2c0.2,0,0.4-0.2,0.4-0.4s-0.2-0.4-0.4-0.4s-0.4,0.2-0.4,0.4S523.7,541.2,523.9,541.2 M523.4,541.3
		c-0.3,0-0.5,0.2-0.5,0.5v1.3c0,0.2,0.4,0.2,0.4,0v-1.2h0.1v3.2c0,0.3,0.5,0.3,0.5,0v-1.8h0.1v1.8c0,0.3,0.5,0.3,0.5,0v-3.2h0.1v1.2
		c0,0.2,0.4,0.2,0.4,0v-1.2c0-0.3-0.2-0.6-0.5-0.6H523.4 M521.7,541.2c0.2,0,0.4-0.2,0.4-0.4s-0.2-0.4-0.4-0.4s-0.4,0.2-0.4,0.4
		S521.5,541.2,521.7,541.2 M521.7,543.8L521.7,543.8l0.1,1.4c0,0.2,0.4,0.2,0.4,0v-1.4h0.5l-0.6-1.9h0.1l0.3,1.1
		c0.1,0.2,0.4,0.1,0.3-0.1l-0.4-1.2c0-0.1-0.2-0.4-0.5-0.4h-0.6c-0.3,0-0.5,0.2-0.5,0.4l-0.4,1.2c-0.1,0.2,0.3,0.3,0.3,0.1l0.3-1.1
		h0.1l-0.6,1.9h0.5v1.4c0,0.2,0.4,0.2,0.4,0v-1.4 M526.1,541.2c0.2,0,0.4-0.2,0.4-0.4s-0.2-0.4-0.4-0.4s-0.4,0.2-0.4,0.4
		C525.7,541,525.8,541.2,526.1,541.2 M526,543.8L526,543.8l0.1,1.4c0,0.2,0.4,0.2,0.4,0v-1.4h0.5l-0.6-1.9h0.1l0.3,1.1
		c0.1,0.2,0.4,0.1,0.3-0.1l-0.4-1.2c0-0.1-0.2-0.4-0.5-0.4h-0.6c-0.3,0-0.4,0.2-0.5,0.4l-0.3,1.2c-0.1,0.2,0.2,0.3,0.3,0.1l0.3-1.1
		h0.1l-0.6,1.9h0.5v1.4c0,0.2,0.4,0.2,0.4,0v-1.4"/>
	<line class="st9" x1="816.6" y1="649.8" x2="814" y2="658.5"/>
	<line class="st9" x1="814.2" y1="649.1" x2="811.6" y2="657.7"/>
	<line class="st9" x1="811.9" y1="648.3" x2="809.2" y2="657"/>
	<line class="st9" x1="809.5" y1="647.6" x2="806.8" y2="656.3"/>
	<line class="st9" x1="807.1" y1="646.9" x2="804.5" y2="655.5"/>
	<polygon class="st9" points="840.4,666.5 794.2,652.4 796.8,643.9 843,658 842.5,659.5 	"/>
	<polygon class="st10" points="801,653 840.8,665.1 840.4,666.5 800.6,654.4 	"/>
	<line class="st9" x1="816.8" y1="640.6" x2="814.3" y2="649"/>
	<line class="st9" x1="814.4" y1="639.9" x2="811.9" y2="648.2"/>
	<line class="st9" x1="812.1" y1="639.2" x2="809.5" y2="647.5"/>
	<line class="st9" x1="809.7" y1="638.4" x2="807.1" y2="646.8"/>
	<polygon class="st9" points="843,657.9 796.8,643.8 799.4,635.3 845.6,649.4 845.1,651 	"/>
	<polygon class="st10" points="842.6,659.4 842.9,658.3 843,658 843.4,656.5 803.7,644.4 803.2,645.8 803.1,646.1 802.8,647.2 	"/>
	
		<rect x="824.7" y="623" transform="matrix(0.2917 -0.9565 0.9565 0.2917 -31.1347 1245.601)" class="st10" width="1.5" height="41.6"/>
	<polygon class="st11" points="841.5,657.9 841.7,657.2 804.2,645.8 804,646.4 	"/>
	<line class="st14" x1="774.3" y1="604.1" x2="788.3" y2="618.2"/>
	<line class="st14" x1="788.3" y1="604.1" x2="774.3" y2="618.2"/>
	<rect x="774.3" y="604.1" class="st9" width="14" height="14.1"/>
	<line class="st14" x1="791" y1="604.1" x2="805" y2="618.2"/>
	<line class="st14" x1="805" y1="604.1" x2="791" y2="618.2"/>
	<rect x="791" y="604.1" class="st9" width="14" height="14.1"/>
	<path class="st12" d="M790.1,630.1c5.7,0,10.2-4.6,10.2-10.2c0-5.7-4.6-10.2-10.2-10.2c-5.7,0-10.2,4.6-10.2,10.2
		C779.8,625.5,784.4,630.1,790.1,630.1"/>
	<path class="st11" d="M785.5,626.2v-6.7c0-0.7,0.5-1.2,1.2-1.2h6.7c0.7,0,1.2,0.5,1.2,1.2v6.7c0,0.7-0.6,1.2-1.2,1.2h-6.7
		C786.1,627.4,785.5,626.8,785.5,626.2 M786.7,626.2h6.8v-6.7h-6.8V626.2z M791.7,613v2.7l-0.7-0.9c-0.5-0.5-1.3,0.2-0.8,0.8l1.7,2
		c0.2,0.3,0.6,0.3,0.8,0l1.7-2c0.5-0.6-0.3-1.3-0.8-0.8l-0.7,0.9V613C793,612.1,791.7,612.1,791.7,613 M787.1,617.2
		c0,0.9,1.2,0.9,1.2,0v-2.7l0.7,0.8c0.5,0.5,1.3-0.2,0.8-0.8l-1.7-2c-0.3-0.3-0.6-0.3-0.9,0l-1.7,2c-0.5,0.6,0.3,1.3,0.8,0.8
		l0.7-0.8v2.7 M790.1,621.2c0.2,0,0.4-0.2,0.4-0.4s-0.2-0.4-0.4-0.4s-0.4,0.2-0.4,0.4S789.9,621.2,790.1,621.2 M789.7,621.3
		c-0.3,0-0.5,0.2-0.5,0.5v1.3c0,0.2,0.4,0.2,0.4,0v-1.2h0.1v3.2c0,0.3,0.5,0.3,0.5,0v-1.8h0.1v1.8c0,0.3,0.5,0.3,0.5,0v-3.2h0.1v1.2
		c0,0.2,0.4,0.2,0.4,0v-1.2c0-0.3-0.2-0.6-0.5-0.6H789.7 M788,621.2c0.2,0,0.4-0.2,0.4-0.4s-0.2-0.4-0.4-0.4s-0.4,0.2-0.4,0.4
		S787.7,621.2,788,621.2 M787.9,623.8L787.9,623.8l0.1,1.4c0,0.2,0.4,0.2,0.4,0v-1.4h0.5l-0.6-1.9h0.1l0.3,1.1
		c0.1,0.2,0.4,0.1,0.3-0.1l-0.4-1.2c0-0.1-0.2-0.4-0.5-0.4h-0.4c-0.3,0-0.5,0.2-0.5,0.4l-0.4,1.2c-0.1,0.2,0.3,0.3,0.3,0.1l0.3-1.1
		h0.1l-0.6,1.9h0.5v1.4c0,0.2,0.4,0.2,0.4,0v-1.4 M792.3,621.2c0.2,0,0.4-0.2,0.4-0.4s-0.2-0.4-0.4-0.4s-0.4,0.2-0.4,0.4
		C791.9,621,792.1,621.2,792.3,621.2 M792.2,623.8L792.2,623.8l0.1,1.4c0,0.2,0.4,0.2,0.4,0v-1.4h0.5l-0.6-1.9h0.1l0.3,1.1
		c0.1,0.2,0.4,0.1,0.3-0.1l-0.4-1.2c0-0.1-0.2-0.4-0.5-0.4h-0.6c-0.3,0-0.5,0.2-0.5,0.4l-0.3,1.2c-0.1,0.2,0.2,0.3,0.3,0.1l0.3-1.1
		h0.1l-0.6,1.9h0.5v1.4c0,0.2,0.4,0.2,0.4,0v-1.4"/>
	<path class="st12" d="M794.5,653.6c5.7,0,10.2-4.6,10.2-10.2c0-5.6-4.6-10.2-10.2-10.2c-5.7,0-10.2,4.6-10.2,10.2
		S788.9,653.6,794.5,653.6"/>
	<path class="st11" d="M794.7,641.1l2.2-2.2c0.4-0.4,1-0.6,1.5-0.6h2.4c0.8,0,1.8,0.8,1.8,1.9c0,1.2-1,2-1.8,2c-0.6,0-1.5,0-1.5,0
		c-0.2,0-0.3,0-0.4,0.2l-6.1,6c-0.5,0.5-1.1,0.6-1.6,0.6s-2.1,0-2.1,0c-1.3,0-2-1.1-2-2s0.7-1.9,1.9-1.9h1.2c0.4,0,0.4,0,0.6-0.2
		l1.9-1.9v-2.6c0-1.4,2-1.4,2,0L794.7,641.1 M793.7,639.2c0.6,0,1-0.5,1-1c0-0.6-0.5-1-1-1c-0.6,0-1,0.4-1,1
		S793.1,639.2,793.7,639.2 M798.5,639.3c-0.4,0-0.7,0-1,0.3l-6.2,6.2c-0.2,0.2-0.5,0.3-0.9,0.3H789c-0.5,0-0.9,0.3-0.9,0.9
		c0,0.6,0.4,1,1,1h2c0.4,0,0.7-0.1,1-0.4l6.1-6.1c0.3-0.3,0.6-0.4,1.1-0.4h1.3c0.6,0,0.9-0.6,0.9-1c0-0.3-0.3-0.9-0.9-0.9h-2.1"/>
	<path class="st12" d="M786.3,709.7c7.1,0,12.8-5.7,12.8-12.8s-5.7-12.8-12.8-12.8s-12.8,5.7-12.8,12.8
		C773.4,704,779.2,709.7,786.3,709.7"/>
	<path class="st11" d="M778.3,692.7h2.5l2.1,8.5h-2.1l-0.3-1.6h-2l-0.3,1.6h-2.1L778.3,692.7z M779.5,694.2L779.5,694.2l-0.7,3.8
		h1.5L779.5,694.2"/>
	<polygon class="st11" points="783.9,694.3 782.1,694.3 782.1,692.7 787.7,692.7 787.7,694.3 785.9,694.3 785.9,701.2 783.9,701.2 	
		"/>
	<polygon class="st11" points="788.4,692.7 791.4,692.7 792.4,698.3 792.4,698.3 793.5,692.7 796.4,692.7 796.4,701.2 794.5,701.2 
		794.5,694.6 794.5,694.6 793.2,701.2 791.6,701.2 790.2,694.6 790.2,694.6 790.2,701.2 788.4,701.2 	"/>
	<circle class="st11" cx="813.3" cy="696.8" r="10.6"/>
	<g>
		<path class="st12" d="M807.8,697.9l-0.7,0.7l1,1l0.7-0.7c0.3-0.3,0.3-0.7,0-1C808.5,697.6,808,697.7,807.8,697.9"/>
		<g>
			<path class="st12" d="M812.9,684.1c-7.1,0-12.8,5.7-12.8,12.8s5.7,12.8,12.8,12.8s12.8-5.7,12.8-12.8
				C825.7,689.9,820,684.1,812.9,684.1 M820.9,693.1h-1.5l-1.1-0.7l2.5,2.5c0.5,0.5,0.5,1.2,0,1.6l-9,9c-0.2,0.2-0.5,0.3-0.8,0.3
				s-0.6-0.1-0.8-0.3l-5.8-5.8c-0.5-0.5-0.5-1.2,0-1.7l5.5-5.5l-1.1,0.5h-1.2c-0.6,0-1-0.5-1-1c0-0.6,0.5-1,1-1H821c0.6,0,1,0.5,1,1
				C821.9,692.6,821.5,693.1,820.9,693.1"/>
			<path class="st12" d="M810.7,704.9c0.1,0.1,0.3,0.1,0.4,0l9-9c0.1-0.1,0.1-0.3,0-0.4l-0.3-0.3l-9.4,9.4L810.7,704.9z"/>
			<path class="st12" d="M816.6,692h-5l0,0l-6.7,6.7c-0.1,0.1-0.1,0.3,0,0.4l4.6,4.6l9.4-9.4l-1.2-1.2L816.6,692z M809.8,701.4
				l-0.6,0.6l-3.4-3.4l1.4-1.4c0.6-0.6,1.6-0.5,2.2,0c0.6,0.6,0.6,1.7,0,2.2l-0.7,0.7L809.8,701.4z M816.8,694.8l-0.5,0.5v-1.1
				l-1.4,1.3l-0.4-0.4l1.3-1.3h-1.1l0.5-0.5h1.5L816.8,694.8L816.8,694.8z"/>
		</g>
	</g>
	<polygon class="st9" points="635.2,486.1 635.2,563.7 626.3,563.7 626.3,486.1 627.9,486.1 	"/>
	<polygon class="st9" points="626.3,486.1 626.3,563.7 617.3,563.7 617.3,486.1 619,486.1 	"/>
	<polygon class="st10" points="627.7,486.1 626.6,486.1 626.3,486.1 624.8,486.1 624.8,555.9 626.3,555.9 626.6,555.9 627.7,555.9 	
		"/>
	<rect x="625.9" y="488" class="st11" width="0.7" height="66.8"/>
	<path class="st12" d="M626.6,577.5c5.7,0,10.2-4.6,10.2-10.2c0-5.7-4.6-10.2-10.2-10.2c-5.7,0-10.2,4.6-10.2,10.2
		C616.3,572.9,620.9,577.5,626.6,577.5"/>
	<path class="st11" d="M634.8,566.4c-0.2-0.9-1.1-1.5-2-1.5c-0.2,0-0.3,0-0.5,0.1l-5.2,1.4v-2c0-1.4-2-1.4-2,0v2.6l-4.7,1.3
		c-0.9,0.2-1.5,1.1-1.5,2c0,0.2,0,0.3,0.1,0.5c0.2,0.9,1.1,1.5,2,1.5c0.2,0,0.3,0,0.5-0.1l11.9-3.2c0.9-0.2,1.5-1.1,1.5-2
		C634.8,566.7,634.8,566.6,634.8,566.4 M633,567.8l-11.9,3.2c-0.1,0-0.2,0-0.2,0c-0.4,0-0.8-0.3-0.9-0.7c0-0.1,0-0.2,0-0.2
		c0-0.4,0.3-0.8,0.7-0.9l11.9-3.2c0.1,0,0.2,0,0.2,0c0.4,0,0.8,0.3,0.9,0.7c0,0.1,0,0.2,0,0.2C633.8,567.3,633.5,567.7,633,567.8
		 M626.1,563.1c0.6,0,1-0.5,1-1c0-0.6-0.5-1-1-1c-0.6,0-1,0.5-1,1C625.1,562.7,625.5,563.1,626.1,563.1"/>
	<rect x="633.8" y="486.1" class="st10" width="1.5" height="69.8"/>
	<rect x="617.3" y="486.1" class="st10" width="1.5" height="69.8"/>
	<rect x="406" y="350.3" class="st10" width="1.5" height="54"/>
	<polyline class="st9" points="448.6,831.1 506.2,831.1 532.8,848.3 	"/>
	<line class="st9" x1="510" y1="833.7" x2="448.6" y2="833.7"/>
	<line class="st9" x1="513.8" y1="836.2" x2="448.6" y2="836.2"/>
	<line class="st9" x1="517.8" y1="838.5" x2="448.7" y2="838.5"/>
	<line class="st9" x1="521.2" y1="840.9" x2="448.6" y2="840.9"/>
	<line class="st9" x1="525.1" y1="843.4" x2="448.6" y2="843.4"/>
	<line class="st9" x1="529.5" y1="846" x2="448.6" y2="846"/>
	
		<rect x="855.1" y="1135.5" transform="matrix(0.7071 -0.7071 0.7071 0.7071 -555.383 938.8028)" class="st10" width="0.9" height="8.6"/>
	
		<rect x="856.9" y="1133.8" transform="matrix(0.7069 -0.7073 0.7073 0.7069 -553.6937 940.0017)" class="st10" width="1" height="8.6"/>
	<path class="st10" d="M857,1145.1l-6.7-6.7l22.9-22.9l6.7,6.7L857,1145.1z M851.7,1138.4l5.3,5.3l21.6-21.5l-5.3-5.3L851.7,1138.4z
		"/>
	
		<rect x="847.8" y="1129.3" transform="matrix(0.7069 -0.7073 0.7073 0.7069 -547.1016 939.7147)" class="st10" width="25.1" height="1.4"/>
	<path class="st10" d="M863,1151.1l-6.7-6.7l22.9-22.9l6.7,6.7L863,1151.1z M857.7,1144.5l5.3,5.3l21.5-21.5l-5.3-5.3L857.7,1144.5z
		"/>
	<polygon class="st10" points="856,1143.5 856.8,1144.2 857,1144.4 858,1145.4 875.7,1127.7 874.7,1126.7 874.5,1126.5 
		873.7,1125.7 	"/>
	<line class="st9" x1="814" y1="1129.9" x2="814" y2="1151.2"/>
	<line class="st9" x1="817.1" y1="1129.9" x2="817.1" y2="1151.2"/>
	<line class="st9" x1="820.2" y1="1129.9" x2="820.2" y2="1151.2"/>
	<line class="st9" x1="814.4" y1="1208.6" x2="814.4" y2="1226.2"/>
	<line class="st9" x1="817.4" y1="1208.6" x2="817.4" y2="1226"/>
	<polyline class="st9" points="838.2,1181.8 838.2,1171.9 821.6,1171.9 821.6,1151.2 799.2,1151.2 799.2,1208.6 838.7,1208.6 
		838.7,1198.5 	"/>
	<path class="st12" d="M828.8,1229.2c5.7,0,10.2-4.6,10.2-10.2c0-5.7-4.6-10.2-10.2-10.2c-5.7,0-10.2,4.6-10.2,10.2
		S823.2,1229.2,828.8,1229.2"/>
	<path class="st11" d="M822.2,1224.6L822.2,1224.6l-0.2-0.1v-1.2c0,0,0-0.1,0.1-0.1h0.1h2.3v-2.3c0,0,0-0.1,0.1-0.1l0.1-0.1h2.2
		v-2.3v-0.1h0.1h2.3v-2.3c0,0,0-0.1,0.1-0.1h0.1h2.3v-2.3v-0.1h0.1h3.6h0.1v0.1v1.2v0.1h-0.1h-2.2v2.3v0.1h-0.1h-2.3v2.3v0.1
		l-0.1,0.1h-2.3v2.3c0,0,0,0.1-0.1,0.1h-0.1H826v2.3c0,0,0,0.1-0.1,0.1h-0.1H822.2z"/>
	<path class="st12" d="M828.8,1151.5c5.7,0,10.2-4.6,10.2-10.2c0-5.7-4.6-10.2-10.2-10.2c-5.7,0-10.2,4.6-10.2,10.2
		S823.2,1151.5,828.8,1151.5"/>
	<path class="st11" d="M822.2,1147L822.2,1147l-0.2-0.1v-1.2c0,0,0-0.1,0.1-0.1h0.1h2.3v-2.3c0,0,0-0.1,0.1-0.1l0.1-0.1h2.2v-2.3
		v-0.1h0.1h2.3v-2.3c0,0,0-0.1,0.1-0.1h0.1h2.3v-2.3v-0.1h0.1h3.6h0.1v0.1v1.2v0.1h-0.1h-2.2v2.3v0.1h-0.1h-2.3v2.3v0.1h-0.1h-2.3
		v2.3c0,0,0,0.1-0.1,0.1h-0.1H826v2.3c0,0,0,0.1-0.1,0.1h-0.1L822.2,1147L822.2,1147z"/>
	<path class="st12" d="M816.1,1203.8c7.1,0,12.8-5.7,12.8-12.8c0-7.1-5.7-12.8-12.8-12.8s-12.8,5.7-12.8,12.8
		C803.3,1198.1,809,1203.8,816.1,1203.8"/>
	<rect x="816.1" y="1183.1" class="st11" width="0.8" height="15.9"/>
	<path class="st11" d="M810.9,1193.8v4.6c0,0.8-1.2,0.8-1.2,0v-4.6h-1.6l1.8-6.1h-0.3l-1,3.5c-0.2,0.8-1.3,0.4-1-0.4l1.1-3.8
		c0.1-0.4,0.7-1.2,1.6-1.2h0.9h0.9c0.9,0,1.5,0.8,1.6,1.2l1.1,3.8c0.2,0.8-0.8,1.1-1,0.4l-1-3.5h-0.3l1.8,6.1h-1.6v4.6
		c0,0.8-1.2,0.8-1.2,0v-4.6H810.9z"/>
	<path class="st11" d="M820.4,1185.9c-0.9,0-1.7,0.8-1.7,1.7v4c0,0.8,1.1,0.8,1.1,0v-3.7h0.3v10.3c0,1.1,1.5,1,1.5,0v-6h0.3v6
		c0,1,1.5,1.1,1.5,0V1188h0.3v3.7c0,0.8,1.1,0.8,1.1,0v-4c0-0.9-0.7-1.7-1.7-1.7L820.4,1185.9z"/>
	<path class="st11" d="M821.8,1185.6c0.7,0,1.3-0.6,1.3-1.3c0-0.7-0.6-1.3-1.3-1.3s-1.3,0.6-1.3,1.3S821.1,1185.6,821.8,1185.6"/>
	<line class="st9" x1="936.4" y1="1018.4" x2="936.4" y2="1039.7"/>
	<line class="st9" x1="939.6" y1="1018.4" x2="939.6" y2="1039.7"/>
	<line class="st9" x1="942.8" y1="1018.4" x2="942.8" y2="1039.7"/>
	<line class="st9" x1="946" y1="1018.4" x2="946" y2="1039.7"/>
	<line class="st9" x1="956.5" y1="1018.4" x2="956.5" y2="1039.7"/>
	<line class="st9" x1="959.6" y1="1018.4" x2="959.6" y2="1039.7"/>
	<line class="st14" x1="1127.5" y1="1093.9" x2="1141.5" y2="1108"/>
	<line class="st14" x1="1141.5" y1="1093.9" x2="1127.5" y2="1108"/>
	<rect x="1127.5" y="1093.9" class="st9" width="14" height="14.1"/>
	<polygon class="st9" points="1124.7,1087.3 1101.3,1088.2 1101.3,1130.3 1124.7,1130.3 	"/>
	<rect x="1101.3" y="1099.8" class="st10" width="2.2" height="16.6"/>
	<rect x="1122.5" y="1099.8" class="st10" width="2.2" height="16.6"/>
	<line class="st9" x1="1101.3" y1="1099.8" x2="1124.7" y2="1099.8"/>
	<line class="st9" x1="1101.3" y1="1102.5" x2="1124.7" y2="1102.5"/>
	<line class="st9" x1="1101.3" y1="1113.2" x2="1124.7" y2="1113.2"/>
	<line class="st9" x1="1101.3" y1="1110.5" x2="1124.7" y2="1110.5"/>
	<line class="st9" x1="1101.3" y1="1107.8" x2="1124.7" y2="1107.8"/>
	<line class="st9" x1="1101.3" y1="1105.1" x2="1124.7" y2="1105.1"/>
	<rect x="1111.9" y="1099.8" class="st10" width="2.2" height="16.6"/>
	<rect x="1112.6" y="1101" class="st11" width="0.8" height="14.1"/>
	<path class="st12" d="M1112.6,1132.2c5.7,0,10.2-4.6,10.2-10.2c0-5.7-4.6-10.2-10.2-10.2c-5.7,0-10.2,4.6-10.2,10.2
		C1102.4,1127.7,1107,1132.2,1112.6,1132.2"/>
	<path class="st11" d="M1106,1127.7L1106,1127.7l-0.2-0.1v-1.2c0,0,0-0.1,0.1-0.1h0.1h2.3v-2.3c0,0,0-0.1,0.1-0.1l0.1-0.1h2.2v-2.3
		v-0.1h0.1h2.3v-2.3c0,0,0-0.1,0.1-0.1h0.1h2.3v-2.3v-0.1h0.1h3.6h0.1v0.1v1.2v0.1h-0.1h-2.2v2.3v0.1h-0.1h-2.3v2.3v0.1h-0.1h-2.3
		v2.3v0.1h-0.1h-2.3v2.3c0,0,0,0.1-0.1,0.1h-0.1L1106,1127.7L1106,1127.7z"/>
	<path class="st12" d="M1134.6,1111.3c5.7,0,10.2-4.6,10.2-10.2c0-5.7-4.6-10.2-10.2-10.2c-5.7,0-10.2,4.6-10.2,10.2
		C1124.3,1106.7,1128.9,1111.3,1134.6,1111.3"/>
	<path class="st11" d="M1130,1107.4v-6.7c0-0.7,0.5-1.2,1.2-1.2h6.7c0.7,0,1.2,0.5,1.2,1.2v6.7c0,0.7-0.6,1.2-1.2,1.2h-6.7
		C1130.5,1108.6,1130,1108,1130,1107.4 M1131.2,1107.4h6.8v-6.7h-6.8V1107.4z M1136.2,1094.2v2.7l-0.7-0.9c-0.5-0.5-1.3,0.2-0.8,0.8
		l1.7,2c0.2,0.3,0.6,0.3,0.8,0l1.7-2c0.5-0.6-0.3-1.3-0.8-0.8l-0.7,0.9v-2.7C1137.5,1093.3,1136.2,1093.3,1136.2,1094.2
		 M1131.6,1098.3c0,0.9,1.2,0.9,1.2,0v-2.7l0.7,0.8c0.5,0.5,1.3-0.2,0.8-0.8l-1.7-2c-0.3-0.3-0.6-0.3-0.9,0l-1.7,2
		c-0.5,0.6,0.3,1.3,0.8,0.8l0.7-0.8L1131.6,1098.3 M1134.6,1102.4c0.2,0,0.4-0.2,0.4-0.4c0-0.2-0.2-0.4-0.4-0.4
		c-0.2,0-0.4,0.2-0.4,0.4C1134.2,1102.2,1134.4,1102.4,1134.6,1102.4 M1134.2,1102.5c-0.3,0-0.5,0.2-0.5,0.5v1.3
		c0,0.2,0.4,0.2,0.4,0v-1.2h0.1v3.2c0,0.3,0.5,0.3,0.5,0v-1.8h0.1v1.8c0,0.3,0.5,0.3,0.5,0v-3.2h0.1v1.2c0,0.2,0.4,0.2,0.4,0v-1.2
		c0-0.3-0.2-0.6-0.5-0.6L1134.2,1102.5 M1132.5,1102.4c0.2,0,0.4-0.2,0.4-0.4c0-0.2-0.2-0.4-0.4-0.4c-0.2,0-0.4,0.2-0.4,0.4
		C1132,1102.2,1132.2,1102.4,1132.5,1102.4 M1132.4,1105L1132.4,1105l0.1,1.4c0,0.2,0.4,0.2,0.4,0v-1.4h0.5l-0.6-1.9h0.1l0.3,1.1
		c0.1,0.2,0.4,0.1,0.3-0.1l-0.4-1.2c0-0.1-0.2-0.4-0.5-0.4h-0.6c-0.3,0-0.5,0.2-0.5,0.4l-0.4,1.2c-0.1,0.2,0.3,0.3,0.3,0.1l0.3-1.1
		h0.1l-0.6,1.9h0.5v1.4c0,0.2,0.4,0.2,0.4,0v-1.4 M1136.8,1102.4c0.2,0,0.4-0.2,0.4-0.4c0-0.2-0.2-0.4-0.4-0.4
		c-0.2,0-0.4,0.2-0.4,0.4C1136.4,1102.2,1136.6,1102.4,1136.8,1102.4 M1136.7,1105L1136.7,1105l0.1,1.4c0,0.2,0.4,0.2,0.4,0v-1.4
		h0.5l-0.6-1.9h0.1l0.3,1.1c0.1,0.2,0.4,0.1,0.3-0.1l-0.4-1.2c0-0.1-0.2-0.4-0.5-0.4h-0.6c-0.3,0-0.5,0.2-0.5,0.4l-0.3,1.2
		c-0.1,0.2,0.2,0.3,0.3,0.1l0.3-1.1h0.1l-0.6,1.9h0.5v1.4c0,0.2,0.4,0.2,0.4,0v-1.4"/>
	<line class="st14" x1="924.8" y1="1058.2" x2="938.7" y2="1072.3"/>
	<line class="st14" x1="938.7" y1="1058.2" x2="924.8" y2="1072.3"/>
	<rect x="924.8" y="1058.2" class="st9" width="14" height="14.1"/>
	<line class="st14" x1="941.5" y1="1058.2" x2="955.5" y2="1072.3"/>
	<line class="st14" x1="955.5" y1="1058.2" x2="941.5" y2="1072.3"/>
	<rect x="941.5" y="1058.2" class="st9" width="14" height="14.1"/>
	<line class="st9" x1="953.8" y1="1097.1" x2="953.8" y2="1115.9"/>
	<line class="st9" x1="956.8" y1="1097.1" x2="956.8" y2="1115.4"/>
	<line class="st9" x1="959.9" y1="1097.1" x2="959.9" y2="1115"/>
	<line class="st9" x1="936.8" y1="1097.1" x2="936.8" y2="1124.4"/>
	<line class="st9" x1="939.9" y1="1097.1" x2="939.9" y2="1122"/>
	<line class="st9" x1="942.9" y1="1097.1" x2="942.9" y2="1119.9"/>
	<line class="st9" x1="946" y1="1097.1" x2="946" y2="1118.3"/>
	<path class="st12" d="M940.1,1086.7c5.7,0,10.2-4.6,10.2-10.2c0-5.7-4.6-10.2-10.2-10.2c-5.7,0-10.2,4.6-10.2,10.2
		S934.5,1086.7,940.1,1086.7"/>
	<path class="st11" d="M935.5,1082.7v-6.7c0-0.7,0.5-1.2,1.2-1.2h6.7c0.7,0,1.2,0.5,1.2,1.2v6.7c0,0.7-0.6,1.2-1.2,1.2h-6.7
		C936.1,1083.9,935.5,1083.4,935.5,1082.7 M936.7,1082.7h6.8v-6.7h-6.8V1082.7z M941.8,1069.6v2.7l-0.7-0.9
		c-0.5-0.5-1.3,0.2-0.8,0.8l1.7,2c0.2,0.3,0.6,0.3,0.8,0l1.7-2c0.5-0.6-0.3-1.3-0.8-0.8l-0.7,0.9v-2.7
		C943,1068.7,941.8,1068.7,941.8,1069.6 M937.2,1073.7c0,0.9,1.2,0.9,1.2,0v-2.7l0.7,0.8c0.5,0.5,1.3-0.2,0.8-0.8l-1.7-2
		c-0.3-0.3-0.6-0.3-0.9,0l-1.7,2c-0.5,0.6,0.3,1.3,0.8,0.8l0.7-0.8v2.7 M940.2,1077.8c0.2,0,0.4-0.2,0.4-0.4c0-0.2-0.2-0.4-0.4-0.4
		s-0.4,0.2-0.4,0.4C939.8,1077.6,939.9,1077.8,940.2,1077.8 M939.7,1077.9c-0.3,0-0.5,0.2-0.5,0.5v1.3c0,0.2,0.4,0.2,0.4,0v-1.2h0.1
		v3.2c0,0.3,0.5,0.3,0.5,0v-1.8h0.1v1.8c0,0.3,0.5,0.3,0.5,0v-3.2h0.1v1.2c0,0.2,0.4,0.2,0.4,0v-1.2c0-0.3-0.2-0.6-0.5-0.6
		L939.7,1077.9 M938,1077.7c0.2,0,0.4-0.2,0.4-0.4c0-0.2-0.2-0.4-0.4-0.4s-0.4,0.2-0.4,0.4C937.6,1077.6,937.8,1077.8,938,1077.7
		 M937.9,1080.3L937.9,1080.3l0.1,1.4c0,0.2,0.4,0.2,0.4,0v-1.4h0.5l-0.6-1.9h0.1l0.3,1.1c0.1,0.2,0.4,0.1,0.3-0.1l-0.4-1.2
		c0-0.1-0.2-0.4-0.5-0.4h-0.4c-0.3,0-0.5,0.2-0.5,0.4l-0.4,1.2c-0.1,0.2,0.3,0.3,0.3,0.1l0.3-1.1h0.1l-0.6,1.9h0.5v1.4
		c0,0.2,0.4,0.2,0.4,0v-1.4 M942.3,1077.7c0.2,0,0.4-0.2,0.4-0.4c0-0.2-0.2-0.4-0.4-0.4s-0.4,0.2-0.4,0.4
		C941.9,1077.6,942.1,1077.8,942.3,1077.7 M942.3,1080.3L942.3,1080.3l0.1,1.4c0,0.2,0.4,0.2,0.4,0v-1.4h0.5l-0.6-1.9h0.1l0.3,1.1
		c0.1,0.2,0.4,0.1,0.3-0.1l-0.4-1.2c0-0.1-0.2-0.4-0.5-0.4h-0.6c-0.3,0-0.5,0.2-0.5,0.4l-0.3,1.2c-0.1,0.2,0.2,0.3,0.3,0.1l0.3-1.1
		h0.1l-0.6,1.9h0.5v1.4c0,0.2,0.4,0.2,0.4,0v-1.4"/>
	<path class="st11" d="M959.7,1074.1c0.7,0,1.3-0.6,1.3-1.3c0-0.7-0.6-1.3-1.3-1.3s-1.3,0.6-1.3,1.3S959,1074.1,959.7,1074.1"/>
	
		<rect x="862.7" y="1128.9" transform="matrix(0.7072 -0.7071 0.7071 0.7072 -548.4731 942.1722)" class="st10" width="1" height="8.6"/>
	
		<rect x="863.6" y="1127.2" transform="matrix(0.7071 -0.7071 0.7071 0.7071 -547.0222 942.3732)" class="st10" width="0.9" height="8.6"/>
	
		<rect x="860" y="1130.4" transform="matrix(0.7071 -0.7071 0.7071 0.7071 -550.3506 940.7557)" class="st10" width="0.9" height="8.6"/>
	
		<rect x="865.2" y="1125.5" transform="matrix(0.7069 -0.7073 0.7073 0.7069 -545.3885 943.4453)" class="st10" width="1" height="8.6"/>
	
		<rect x="866.9" y="1123.9" transform="matrix(0.7073 -0.7069 0.7069 0.7073 -543.6659 943.3417)" class="st10" width="0.9" height="8.6"/>
	<polygon class="st10" points="871.7,1129.8 865.7,1123.8 866.3,1123.1 872.4,1129.2 	"/>
	
		<rect x="858.5" y="1132.3" transform="matrix(0.7071 -0.7071 0.7071 0.7071 -552.1233 940.2651)" class="st10" width="0.9" height="8.6"/>
	<polygon class="st10" points="871,1142.5 865.1,1136.6 865.8,1135.9 871.7,1141.8 	"/>
	
		<rect x="869.6" y="1133.4" transform="matrix(0.707 -0.7072 0.7072 0.707 -549.5718 948.5826)" class="st10" width="0.9" height="8.3"/>
	
		<rect x="866.2" y="1136.8" transform="matrix(0.707 -0.7072 0.7072 0.707 -552.9543 947.2197)" class="st10" width="1" height="8.3"/>
	
		<rect x="871.3" y="1131.6" transform="matrix(0.7069 -0.7073 0.7073 0.7069 -547.8082 949.496)" class="st10" width="1" height="8.3"/>
	
		<rect x="872.9" y="1130" transform="matrix(0.7069 -0.7073 0.7073 0.7069 -546.2243 950.1239)" class="st10" width="0.9" height="8.3"/>
	
		<rect x="874.6" y="1128.2" transform="matrix(0.7069 -0.7073 0.7073 0.7069 -544.4071 950.8324)" class="st10" width="1" height="8.3"/>
	
		<rect x="861.2" y="1141.7" transform="matrix(0.7072 -0.707 0.707 0.7072 -557.8434 944.6758)" class="st10" width="0.9" height="8.3"/>
	
		<rect x="862.8" y="1140" transform="matrix(0.7071 -0.7071 0.7071 0.7071 -556.2028 945.5213)" class="st10" width="0.9" height="8.3"/>
	
		<rect x="864.6" y="1138.4" transform="matrix(0.7071 -0.7071 0.7071 0.7071 -554.5433 946.3159)" class="st10" width="0.9" height="8.3"/>
	
		<rect x="858.8" y="1140.4" transform="matrix(0.7072 -0.707 0.707 0.7072 -551.6457 950.1488)" class="st10" width="25.1" height="1.4"/>
	
		<rect x="854.4" y="1135" transform="matrix(0.7148 -0.6993 0.6993 0.7148 -547.0297 929.2805)" class="st11" width="22.8" height="0.7"/>
	<path class="st12" d="M885.2,1126.7c5.6,0,10.2-4.6,10.2-10.2c0-5.7-4.6-10.2-10.2-10.2c-5.7,0-10.2,4.6-10.2,10.2
		S879.6,1126.7,885.2,1126.7"/>
	<path class="st11" d="M885.3,1114.2l2.2-2.2c0.4-0.4,1-0.6,1.5-0.6h2.4c0.8,0,1.8,0.8,1.8,2s-1,2-1.8,2c-0.6,0-1.5,0-1.5,0
		c-0.2,0-0.3,0-0.4,0.2l-6.1,6c-0.5,0.5-1.1,0.7-1.6,0.6c-0.5,0-2.1,0-2.1,0c-1.3,0-2-1.1-2-2s0.7-1.9,1.9-1.9h1.2
		c0.3,0,0.4,0,0.6-0.2l1.9-1.9v-2.6c0-1.4,2-1.4,2,0L885.3,1114.2 M884.3,1112.4c0.6,0,1-0.5,1-1s-0.5-1-1-1c-0.6,0-1,0.4-1,1
		C883.3,1111.9,883.8,1112.4,884.3,1112.4 M889.2,1112.4c-0.4,0-0.7,0-1,0.3l-6.2,6.2c-0.2,0.2-0.5,0.3-0.9,0.3h-1.4
		c-0.5,0-0.9,0.3-0.9,0.9s0.4,1,1,1h2c0.4,0,0.7-0.1,0.9-0.4l6.1-6.1c0.3-0.3,0.6-0.4,1.1-0.4h1.3c0.6,0,0.9-0.6,0.9-1
		c0-0.3-0.3-0.9-0.9-0.9L889.2,1112.4"/>
	<g class="st2">
		<path d="M451.2,598.6c0,0-0.1,0.7-0.3,1.3l-1.6,5.9h-1l-2.2-8.4h0.9l1.6,6.5c0.1,0.4,0.2,0.9,0.2,0.9l0,0c0,0,0.1-0.5,0.2-0.9
			l1.8-6.5h0.8l1.8,6.5c0.1,0.4,0.2,0.9,0.2,0.9l0,0c0,0,0.1-0.5,0.2-0.9l1.7-6.5h0.9l-2.2,8.4h-1l-1.6-5.9
			C451.4,599.3,451.3,598.6,451.2,598.6L451.2,598.6z"/>
		<path d="M457.7,601.5c0-2.4,0.7-4.4,2.9-4.4s2.9,1.9,2.9,4.4c0,2.4-0.7,4.4-2.9,4.4S457.7,604,457.7,601.5z M462.6,601.5
			c0-2-0.4-3.6-2-3.6s-2.1,1.6-2.1,3.6s0.4,3.6,2.1,3.6C462.2,605.1,462.6,603.6,462.6,601.5z"/>
		<path d="M465.2,601.5c0-2.4,0.7-4.4,2.9-4.4s2.9,1.9,2.9,4.4c0,2.4-0.7,4.4-2.9,4.4S465.2,604,465.2,601.5z M470.1,601.5
			c0-2-0.4-3.6-2-3.6s-2.1,1.6-2.1,3.6s0.4,3.6,2.1,3.6C469.7,605.1,470.1,603.6,470.1,601.5z"/>
		<path d="M472.9,604.1c0,0,0.9,1,2.2,1c1,0,1.9-0.7,1.9-1.8c0-1.2-1-1.8-2.1-1.8h-0.6l-0.2-0.5l2.1-2.5c0.2-0.3,0.4-0.5,0.4-0.5
			l0,0c0,0-0.2,0-0.7,0h-3.2v-0.7h4.9v0.6l-2.5,2.9c1.1,0.1,2.6,0.7,2.6,2.5c0,1.4-1.2,2.6-2.8,2.6c-1.7,0-2.7-1.2-2.7-1.2
			L472.9,604.1z"/>
		<path d="M479.8,597.3h0.8v3.7h1.4l2.3-3.7h0.9l-2.5,4l0,0l2.7,4.4h-1l-2.4-4h-1.4v4h-0.8V597.3z"/>
	</g>
	<g class="st2">
		<path d="M451.2,513.3c0,0-0.1,0.7-0.3,1.3l-1.6,5.9h-1l-2.2-8.4h0.9l1.6,6.5c0.1,0.4,0.2,0.9,0.2,0.9l0,0c0,0,0.1-0.5,0.2-0.9
			l1.8-6.5h0.8l1.8,6.5c0.1,0.4,0.2,0.9,0.2,0.9l0,0c0,0,0.1-0.5,0.2-0.9l1.7-6.5h0.9l-2.2,8.4h-1l-1.6-5.9
			C451.4,514,451.3,513.3,451.2,513.3L451.2,513.3z"/>
		<path d="M457.7,516.3c0-2.4,0.7-4.4,2.9-4.4s2.9,1.9,2.9,4.4c0,2.4-0.7,4.4-2.9,4.4S457.7,518.7,457.7,516.3z M462.6,516.3
			c0-2-0.4-3.6-2-3.6s-2.1,1.6-2.1,3.6s0.4,3.6,2.1,3.6C462.2,519.9,462.6,518.3,462.6,516.3z"/>
		<path d="M465.2,516.3c0-2.4,0.7-4.4,2.9-4.4s2.9,1.9,2.9,4.4c0,2.4-0.7,4.4-2.9,4.4S465.2,518.7,465.2,516.3z M470.1,516.3
			c0-2-0.4-3.6-2-3.6s-2.1,1.6-2.1,3.6s0.4,3.6,2.1,3.6C469.7,519.9,470.1,518.3,470.1,516.3z"/>
		<path d="M472.6,520c0-3,4.3-3.3,4.3-5.6c0-0.9-0.7-1.6-1.8-1.6c-1.2,0-1.9,1.2-1.9,1.2l-0.6-0.4c0,0,0.8-1.5,2.6-1.5
			c1.6,0,2.6,1,2.6,2.4c0,2.8-4.3,3.2-4.3,5.5h4.4v0.7h-5.3C472.6,520.3,472.6,520.1,472.6,520z"/>
		<path d="M479.8,512.1h0.8v3.7h1.4l2.3-3.7h0.9l-2.5,4l0,0l2.7,4.4h-1l-2.4-4h-1.4v4h-0.8V512.1z"/>
	</g>
	<g class="st2">
		<path d="M451.2,455.9c0,0-0.1,0.7-0.3,1.3l-1.6,5.9h-1l-2.2-8.4h0.9l1.6,6.5c0.1,0.4,0.2,0.9,0.2,0.9l0,0c0,0,0.1-0.5,0.2-0.9
			l1.8-6.5h0.8l1.8,6.5c0.1,0.4,0.2,0.9,0.2,0.9l0,0c0,0,0.1-0.5,0.2-0.9l1.7-6.5h0.9l-2.2,8.4h-1l-1.6-5.9
			C451.4,456.6,451.3,455.9,451.2,455.9L451.2,455.9z"/>
		<path d="M457.7,458.8c0-2.4,0.7-4.4,2.9-4.4s2.9,1.9,2.9,4.4c0,2.4-0.7,4.4-2.9,4.4S457.7,461.3,457.7,458.8z M462.6,458.8
			c0-2-0.4-3.6-2-3.6s-2.1,1.6-2.1,3.6s0.4,3.6,2.1,3.6C462.2,462.4,462.6,460.9,462.6,458.8z"/>
		<path d="M465.2,458.8c0-2.4,0.7-4.4,2.9-4.4s2.9,1.9,2.9,4.4c0,2.4-0.7,4.4-2.9,4.4S465.2,461.3,465.2,458.8z M470.1,458.8
			c0-2-0.4-3.6-2-3.6s-2.1,1.6-2.1,3.6s0.4,3.6,2.1,3.6C469.7,462.4,470.1,460.9,470.1,458.8z"/>
		<path d="M472.5,462.3h1.9v-6.2c0-0.2,0-0.5,0-0.5l0,0c0,0-0.1,0.2-0.4,0.5l-0.9,0.9l-0.5-0.5l1.9-1.9h0.8v7.7h1.9v0.7h-4.6
			L472.5,462.3L472.5,462.3z"/>
		<path d="M478.7,454.6h0.8v3.7h1.4l2.3-3.7h0.9l-2.5,4l0,0l2.7,4.4h-1l-2.4-4h-1.4v4h-0.8V454.6z"/>
	</g>
	<g class="st2">
		<path d="M451.2,406.5c0,0-0.1,0.7-0.3,1.3l-1.6,5.9h-1l-2.2-8.4h0.9l1.6,6.5c0.1,0.4,0.2,0.9,0.2,0.9l0,0c0,0,0.1-0.5,0.2-0.9
			l1.8-6.5h0.8l1.8,6.5c0.1,0.4,0.2,0.9,0.2,0.9l0,0c0,0,0.1-0.5,0.2-0.9l1.7-6.5h0.9l-2.2,8.4h-1l-1.6-5.9
			C451.4,407.2,451.3,406.5,451.2,406.5L451.2,406.5z"/>
		<path d="M457.7,409.5c0-2.4,0.7-4.4,2.9-4.4s2.9,1.9,2.9,4.4c0,2.4-0.7,4.4-2.9,4.4S457.7,411.9,457.7,409.5z M462.6,409.5
			c0-2-0.4-3.6-2-3.6s-2.1,1.6-2.1,3.6s0.4,3.6,2.1,3.6C462.2,413.1,462.6,411.5,462.6,409.5z"/>
		<path d="M465.2,409.5c0-2.4,0.7-4.4,2.9-4.4s2.9,1.9,2.9,4.4c0,2.4-0.7,4.4-2.9,4.4S465.2,411.9,465.2,409.5z M470.1,409.5
			c0-2-0.4-3.6-2-3.6s-2.1,1.6-2.1,3.6s0.4,3.6,2.1,3.6C469.7,413.1,470.1,411.5,470.1,409.5z"/>
		<path d="M473,412.1c0,0,0.6,1,1.9,1c1.2,0,2.1-0.8,2.1-2s-0.9-2-2.1-2c-0.9,0-1.5,0.5-1.5,0.5l-0.5-0.2l0.5-4.1h4.1v0.7H474
			l-0.2,2.2c0,0.3-0.1,0.5-0.1,0.5l0,0c0,0,0.5-0.3,1.3-0.3c1.7,0,2.9,1.2,2.9,2.7c0,1.6-1.3,2.8-2.9,2.8c-1.7,0-2.5-1.2-2.5-1.2
			L473,412.1z"/>
		<path d="M479.8,405.3h0.8v3.7h1.4l2.3-3.7h0.9l-2.5,4l0,0l2.7,4.4h-1l-2.4-4h-1.4v4h-0.8V405.3z"/>
	</g>
	<g class="st2">
		<path d="M451.2,655.8c0,0-0.1,0.7-0.3,1.3l-1.6,5.9h-1l-2.2-8.4h0.9l1.6,6.5c0.1,0.4,0.2,0.9,0.2,0.9l0,0c0,0,0.1-0.5,0.2-0.9
			l1.8-6.5h0.8l1.8,6.5c0.1,0.4,0.2,0.9,0.2,0.9l0,0c0,0,0.1-0.5,0.2-0.9l1.7-6.5h0.9l-2.2,8.4h-1l-1.6-5.9
			C451.4,656.5,451.3,655.8,451.2,655.8L451.2,655.8z"/>
		<path d="M457.7,658.7c0-2.4,0.7-4.4,2.9-4.4s2.9,1.9,2.9,4.4c0,2.4-0.7,4.4-2.9,4.4S457.7,661.2,457.7,658.7z M462.6,658.7
			c0-2-0.4-3.6-2-3.6s-2.1,1.6-2.1,3.6s0.4,3.6,2.1,3.6C462.2,662.3,462.6,660.8,462.6,658.7z"/>
		<path d="M465.2,658.7c0-2.4,0.7-4.4,2.9-4.4s2.9,1.9,2.9,4.4c0,2.4-0.7,4.4-2.9,4.4S465.2,661.2,465.2,658.7z M470.1,658.7
			c0-2-0.4-3.6-2-3.6s-2.1,1.6-2.1,3.6s0.4,3.6,2.1,3.6C469.7,662.3,470.1,660.8,470.1,658.7z"/>
		<path d="M472.2,660.1l4.1-5.6h0.9v5.4h1.2v0.7h-1.2v2.3h-0.8v-2.3h-4.2V660.1z M476.5,659.9v-3.5c0-0.4,0-0.8,0-0.8l0,0
			c0,0-0.2,0.3-0.4,0.6l-2.8,3.7l0,0H476.5z"/>
		<path d="M480.2,654.5h0.8v3.7h1.4l2.3-3.7h0.9l-2.5,4l0,0l2.7,4.4h-1l-2.4-4H481v4h-0.8V654.5z"/>
	</g>
	<g>
		<path d="M116.4,692.3c-0.4,0.6-0.9,0.9-1.4,1.2c-0.5,0.2-1.1,0.4-1.7,0.4c-0.6,0-1.2-0.1-1.8-0.3c-0.5-0.2-1-0.5-1.4-0.9
			c-0.4-0.4-0.7-0.9-0.9-1.4c-0.2-0.5-0.3-1.1-0.3-1.8s0.1-1.2,0.3-1.8c0.2-0.5,0.5-1,0.9-1.4c0.4-0.4,0.8-0.7,1.4-0.9
			s1.1-0.3,1.8-0.3c0.6,0,1.1,0.1,1.6,0.3c0.5,0.2,0.9,0.5,1.3,1l-0.6,0.5c-0.3-0.4-0.6-0.7-1-0.9s-0.8-0.3-1.3-0.3
			c-0.6,0-1,0.1-1.5,0.3c-0.4,0.2-0.8,0.5-1.1,0.8s-0.6,0.7-0.7,1.2c-0.2,0.5-0.3,0.9-0.3,1.5s0.1,1,0.3,1.5
			c0.2,0.5,0.4,0.9,0.7,1.2s0.7,0.6,1.1,0.8c0.4,0.2,0.9,0.3,1.5,0.3c0.2,0,0.4,0,0.7-0.1c0.2-0.1,0.5-0.1,0.7-0.2
			c0.2-0.1,0.4-0.2,0.6-0.4c0.2-0.2,0.4-0.4,0.5-0.6L116.4,692.3z"/>
		<path d="M117.8,685.1h2.4c0.3,0,0.6,0,0.9,0.1s0.6,0.2,0.9,0.4c0.3,0.2,0.5,0.4,0.7,0.7s0.3,0.7,0.3,1.1c0,0.4-0.1,0.7-0.2,1
			c-0.1,0.3-0.3,0.5-0.6,0.7c-0.2,0.2-0.5,0.3-0.8,0.4c-0.3,0.1-0.6,0.1-1,0.1h-1.8v4h-0.8V685.1z M118.6,688.8h1.8
			c0.2,0,0.4,0,0.7-0.1c0.2-0.1,0.4-0.1,0.6-0.3c0.2-0.1,0.3-0.3,0.4-0.5s0.2-0.4,0.2-0.7c0-0.3-0.1-0.5-0.2-0.7
			c-0.1-0.2-0.2-0.3-0.4-0.5c-0.2-0.1-0.4-0.2-0.6-0.3s-0.4-0.1-0.7-0.1h-1.8V688.8z"/>
		<path d="M124.7,685.1h0.8v3.7h0.1l4.1-3.7h1.1l-4.3,3.9l4.5,4.6h-1.1l-4.3-4.4h-0.1v4.4h-0.8V685.1z"/>
		<path d="M134,686.1L134,686.1l-1.5,1.3l-0.4-0.6l2.1-1.7h0.6v8.5H134V686.1z"/>
	</g>
</g>
</svg>
